<svg version="1.1" xmlns="http://www.w3.org/2000/svg" viewBox="0 0 1496.4514617315463 897.5634616738148" width="2992.9029234630925" height="1795.1269233476296" filter="invert(93%) hue-rotate(180deg)">
  <!-- svg-source:excalidraw -->
  
  <defs>
    <style class="style-fonts">
      @font-face {
        font-family: "Virgil";
        src: url("https://excalidraw.com/Virgil.woff2");
      }
      @font-face {
        font-family: "Cascadia";
        src: url("https://excalidraw.com/Cascadia.woff2");
      }
    </style>
    
  </defs>
  <rect x="0" y="0" width="1496.4514617315463" height="897.5634616738148" fill="#ffffff"></rect><g stroke-linecap="round" transform="translate(302.6995102386884 10) rotate(0 252.80415634328568 104.40275197900527)"><path d="M7.86 8.16 C7.86 8.16, 7.86 8.16, 7.86 8.16 M7.86 8.16 C7.86 8.16, 7.86 8.16, 7.86 8.16 M3.66 19.09 C7.08 13.99, 12.79 8.16, 18.1 2.48 M3.66 19.09 C8.19 13.38, 14.78 6.18, 18.1 2.48 M2.75 26.24 C9.45 18.69, 13.69 12.32, 24.4 1.33 M2.75 26.24 C10.22 18.92, 15.44 11.11, 24.4 1.33 M2.48 32.64 C13.33 20.26, 23.9 9.31, 30.7 0.18 M2.48 32.64 C12.07 22.06, 21.8 9.88, 30.7 0.18 M2.88 38.28 C12.64 29.14, 19.37 21.19, 34.37 2.05 M2.88 38.28 C13.8 26.04, 25.21 12.63, 34.37 2.05 M2.62 44.68 C15.42 26.78, 29.14 11.15, 39.36 2.41 M2.62 44.68 C12.24 34.01, 21.93 22.65, 39.36 2.41 M2.36 51.07 C16.19 36.29, 30.22 20.01, 45 2.02 M2.36 51.07 C12.18 38.52, 24.02 27.07, 45 2.02 M2.75 56.72 C22.55 35.07, 38.1 14.8, 49.99 2.38 M2.75 56.72 C19.11 37.26, 37.15 17.07, 49.99 2.38 M2.49 63.11 C11.95 49.16, 24.31 37.76, 55.63 1.98 M2.49 63.11 C14 49.32, 24.65 35.8, 55.63 1.98 M2.88 68.76 C15.93 51.02, 31.19 36.44, 60.62 2.34 M2.88 68.76 C22.41 45.92, 42.46 23.58, 60.62 2.34 M2.62 75.16 C27 45.56, 48.29 21.39, 66.26 1.95 M2.62 75.16 C15.31 58.38, 29.79 42.3, 66.26 1.95 M2.36 81.55 C19.27 62.88, 39.38 39.15, 71.25 2.31 M2.36 81.55 C22.59 58.8, 43.32 33.53, 71.25 2.31 M2.76 87.2 C27.05 61.68, 49.39 38.02, 76.89 1.91 M2.76 87.2 C22.12 64.55, 40.7 43.63, 76.89 1.91 M2.49 93.59 C33.34 60.1, 63.29 24.43, 81.88 2.27 M2.49 93.59 C34.88 58.12, 64.17 22.09, 81.88 2.27 M2.89 99.24 C29.43 71.9, 50.63 42.21, 87.52 1.88 M2.89 99.24 C22.83 78.74, 40.94 59.01, 87.52 1.88 M2.63 105.64 C38.11 66.33, 73.39 28.11, 92.51 2.24 M2.63 105.64 C34.42 71.26, 63.81 37.86, 92.51 2.24 M2.37 112.03 C23.82 86.83, 46.54 60.92, 98.15 1.85 M2.37 112.03 C26.53 84, 51.16 55.64, 98.15 1.85 M2.76 117.68 C38.75 73.64, 75.13 33.52, 103.14 2.21 M2.76 117.68 C37.77 77.54, 71.9 36.54, 103.14 2.21 M2.5 124.07 C23.85 100.55, 44.67 73.72, 108.78 1.81 M2.5 124.07 C43.69 78.69, 83.36 31.83, 108.78 1.81 M2.89 129.72 C47.4 79.52, 89.51 28.31, 113.77 2.17 M2.89 129.72 C26.98 102.18, 48.36 76.73, 113.77 2.17 M2.63 136.11 C39.16 93.29, 79.01 50.41, 119.41 1.78 M2.63 136.11 C38.08 95.23, 74.54 53.02, 119.41 1.78 M2.37 142.51 C36.06 105.48, 69.76 68.69, 124.4 2.14 M2.37 142.51 C43.98 92.86, 85.11 44.52, 124.4 2.14 M2.77 148.16 C38.32 107.95, 75.29 66.58, 130.04 1.74 M2.77 148.16 C29.49 116.17, 57.51 86.61, 130.04 1.74 M2.5 154.55 C49.53 101.13, 100.38 45.69, 135.03 2.1 M2.5 154.55 C29.97 121.99, 57.62 90.04, 135.03 2.1 M2.9 160.2 C54.12 101.83, 104.55 40.12, 140.67 1.71 M2.9 160.2 C50.43 105.13, 98.55 50.74, 140.67 1.71 M2.64 166.59 C55.63 107.64, 108.2 48.13, 145.66 2.07 M2.64 166.59 C43.92 120.02, 84.26 72.92, 145.66 2.07 M2.38 172.99 C44.54 124.79, 88.76 74.27, 150.65 2.43 M2.38 172.99 C34.25 136.68, 66.72 98.71, 150.65 2.43 M2.77 178.64 C59.34 112.98, 113.1 47.8, 156.29 2.03 M2.77 178.64 C40.62 136.18, 78.37 92.12, 156.29 2.03 M1.85 185.79 C59.43 120.21, 114.64 54.66, 161.28 2.39 M1.85 185.79 C39.53 140.76, 77.47 96.15, 161.28 2.39 M3.56 189.92 C60.56 125.05, 120.88 57.19, 166.92 2 M3.56 189.92 C41.39 145.09, 81.15 100.96, 166.92 2 M5.27 194.05 C49.43 145.98, 90.19 99.91, 171.91 2.36 M5.27 194.05 C48.07 142.59, 92.92 92.82, 171.91 2.36 M6.97 198.19 C61.76 134.29, 117.05 70.92, 177.55 1.96 M6.97 198.19 C71.04 125.74, 134.23 53.42, 177.55 1.96 M9.99 200.81 C63.3 140.31, 114.36 83.42, 182.54 2.32 M9.99 200.81 C52.16 150.57, 96.2 102.01, 182.54 2.32 M12.35 204.19 C75.4 131.13, 136.77 61.05, 188.18 1.93 M12.35 204.19 C55.64 154.03, 98.48 105.89, 188.18 1.93 M15.37 206.82 C85.63 127.77, 153.61 47.81, 193.17 2.29 M15.37 206.82 C86.14 126.66, 155.76 46.59, 193.17 2.29 M19.7 207.93 C84.34 133.27, 148.47 59.45, 198.81 1.9 M19.7 207.93 C60.75 161.91, 98.64 118.51, 198.81 1.9 M24.04 209.05 C68.27 159.96, 111.71 109.77, 203.8 2.26 M24.04 209.05 C97.54 126.95, 168.33 44.23, 203.8 2.26 M29.02 209.41 C86.02 143.01, 146.59 74.91, 209.44 1.86 M29.02 209.41 C88.95 139.75, 148.46 70.76, 209.44 1.86 M33.35 210.52 C94.83 138.13, 158.22 65.36, 214.43 2.22 M33.35 210.52 C73.07 167.99, 110.5 123.15, 214.43 2.22 M39 210.13 C84.7 156.97, 128.1 105.34, 220.07 1.83 M39 210.13 C74.53 167.24, 110.64 125.87, 220.07 1.83 M43.98 210.49 C88.26 158.23, 131.68 107.73, 225.06 2.19 M43.98 210.49 C98.11 149.86, 151.78 88.27, 225.06 2.19 M49.63 210.09 C89 163.35, 131.72 115.58, 230.7 1.79 M49.63 210.09 C104.29 147.46, 160.36 83.7, 230.7 1.79 M54.61 210.45 C97.07 164.4, 136.17 117.8, 235.69 2.15 M54.61 210.45 C114.6 144.39, 173.45 75.87, 235.69 2.15 M60.26 210.06 C127.14 135.45, 192.23 57.44, 241.33 1.76 M60.26 210.06 C116.39 145.6, 169.93 82.91, 241.33 1.76 M65.24 210.42 C105 164.98, 142.14 122.13, 246.32 2.12 M65.24 210.42 C121.51 143.85, 179.15 79.41, 246.32 2.12 M70.89 210.02 C119.26 154.2, 168.29 99.83, 251.96 1.72 M70.89 210.02 C130.83 141.61, 191 72.78, 251.96 1.72 M75.87 210.38 C130.67 148.48, 186.23 82.75, 256.95 2.08 M75.87 210.38 C128.34 148.64, 180.78 88.23, 256.95 2.08 M81.52 209.99 C140.84 139.81, 201.24 70.82, 262.59 1.69 M81.52 209.99 C134.06 150.17, 186.32 91.05, 262.59 1.69 M86.5 210.35 C130.11 157.24, 177.12 105.86, 267.58 2.05 M86.5 210.35 C126.85 166.94, 164.4 121.99, 267.58 2.05 M92.15 209.95 C138.68 153.78, 187.16 100.16, 272.56 2.41 M92.15 209.95 C155.78 135.7, 220.1 61.19, 272.56 2.41 M97.13 210.31 C157.01 138.86, 218.65 68.74, 278.21 2.01 M97.13 210.31 C144.36 157.22, 190.17 104.47, 278.21 2.01 M102.78 209.92 C169.34 130.94, 238.94 55.04, 283.19 2.37 M102.78 209.92 C155.26 150.58, 207.65 90.73, 283.19 2.37 M107.76 210.28 C163.45 147.94, 217.65 84.55, 288.84 1.98 M107.76 210.28 C165.28 142.32, 223.33 75.64, 288.84 1.98 M113.41 209.88 C160.53 154.58, 208.51 99.2, 293.82 2.34 M113.41 209.88 C167.42 145.41, 222.88 82, 293.82 2.34 M118.39 210.24 C165.75 154.02, 212.69 101.22, 299.47 1.94 M118.39 210.24 C179.98 140.77, 242.01 71.29, 299.47 1.94 M124.04 209.85 C188.65 134.63, 251.39 61.82, 304.45 2.3 M124.04 209.85 C162.76 164.33, 201.25 119.55, 304.45 2.3 M129.02 210.21 C193.71 138.4, 256.66 66.95, 310.1 1.91 M129.02 210.21 C192.1 136.58, 253.42 65.84, 310.1 1.91 M134.01 210.57 C198.42 137.26, 263.27 66.05, 315.08 2.27 M134.01 210.57 C184.4 150.6, 236.03 92.07, 315.08 2.27 M139.65 210.18 C187.13 154.7, 235.13 97.96, 320.73 1.88 M139.65 210.18 C180.04 164.18, 219.52 118.19, 320.73 1.88 M144.64 210.54 C211.63 134.59, 277.15 57.66, 325.71 2.24 M144.64 210.54 C207.43 136.12, 273.06 61.73, 325.71 2.24 M150.28 210.14 C217.34 134.03, 283.92 57.67, 331.36 1.84 M150.28 210.14 C214.34 135.53, 281.07 59.21, 331.36 1.84 M155.27 210.5 C196.31 164.09, 235.16 120.65, 336.34 2.2 M155.27 210.5 C219.08 135.83, 283.59 61.55, 336.34 2.2 M160.91 210.11 C222.99 136.94, 289.56 60.85, 341.99 1.81 M160.91 210.11 C229.72 131.12, 298.95 50.44, 341.99 1.81 M165.9 210.47 C223.86 145.87, 279.95 77.31, 346.97 2.17 M165.9 210.47 C234.87 133.83, 302.68 54.98, 346.97 2.17 M171.54 210.07 C241.41 131.67, 313.59 50.59, 352.62 1.77 M171.54 210.07 C212.35 161.8, 252.9 115.28, 352.62 1.77 M176.53 210.43 C246.52 129.97, 318.54 49.29, 357.6 2.13 M176.53 210.43 C243.07 131.46, 311.75 52.61, 357.6 2.13 M182.17 210.04 C246.44 134.46, 309.88 59.71, 363.25 1.74 M182.17 210.04 C228.28 156.08, 275.79 100.75, 363.25 1.74 M187.16 210.4 C247.3 141.25, 310.58 68.69, 368.23 2.1 M187.16 210.4 C242.58 147.36, 296.12 85.13, 368.23 2.1 M192.8 210 C235.1 161.87, 277.92 109.78, 373.88 1.7 M192.8 210 C259.45 134.51, 326.53 56.42, 373.88 1.7 M197.79 210.36 C234.9 165.35, 272.91 121.89, 378.86 2.06 M197.79 210.36 C264.75 133.83, 330.38 58.75, 378.86 2.06 M203.43 209.97 C261.98 142.21, 323.55 72.8, 383.85 2.42 M203.43 209.97 C252.69 153.64, 301.1 97.47, 383.85 2.42 M208.42 210.33 C245.85 168.36, 281.3 126.79, 389.49 2.03 M208.42 210.33 C271.13 138.44, 334.01 65.79, 389.49 2.03 M214.07 209.93 C283.77 128.11, 356.78 45.43, 394.48 2.39 M214.07 209.93 C286.87 128.96, 356.99 47.23, 394.48 2.39 M219.05 210.29 C263.22 157.35, 307.87 103.65, 400.12 1.99 M219.05 210.29 C278.14 144.95, 335.06 79.69, 400.12 1.99 M224.7 209.9 C288.31 138.03, 352.67 64.61, 405.11 2.35 M224.7 209.9 C260.79 169.59, 297.36 126.62, 405.11 2.35 M229.68 210.26 C280.89 150.01, 333.54 91.55, 410.75 1.96 M229.68 210.26 C285.62 147.52, 339.87 85.58, 410.75 1.96 M235.33 209.87 C296.91 136.38, 359.87 63.13, 415.74 2.32 M235.33 209.87 C283.37 151.74, 334.92 93.7, 415.74 2.32 M240.31 210.23 C298.96 142.47, 355.31 76.78, 421.38 1.93 M240.31 210.23 C277.41 166.01, 315.43 122.6, 421.38 1.93 M245.3 210.59 C302.28 145.83, 360.83 79.5, 426.37 2.29 M245.3 210.59 C285.05 163.21, 325.93 116.37, 426.37 2.29 M250.94 210.19 C322.18 126.58, 394.45 43.37, 432.01 1.89 M250.94 210.19 C307.62 144.25, 366.28 78.01, 432.01 1.89 M255.93 210.55 C295.91 163.7, 336.83 119.32, 437 2.25 M255.93 210.55 C324.6 131.95, 392.52 51.77, 437 2.25 M261.57 210.16 C304.9 158.49, 350.03 110.3, 442.64 1.86 M261.57 210.16 C330.72 127.96, 401.53 47.91, 442.64 1.86 M266.56 210.52 C335.46 132.64, 403.54 55.57, 447.63 2.22 M266.56 210.52 C320.28 150.12, 371.23 90.46, 447.63 2.22 M272.2 210.12 C341.07 132.71, 409.69 51.71, 453.27 1.82 M272.2 210.12 C333.72 139.7, 395.43 67.96, 453.27 1.82 M277.19 210.48 C341.32 138.11, 404.44 65.69, 458.26 2.18 M277.19 210.48 C317.87 163.85, 359.69 116.03, 458.26 2.18 M282.83 210.09 C329.91 156.97, 374.43 104.65, 463.9 1.79 M282.83 210.09 C351.9 131.94, 419.63 51.83, 463.9 1.79 M287.82 210.45 C337.6 156.28, 384.19 102.1, 468.89 2.15 M287.82 210.45 C340.64 150.06, 394.43 87.77, 468.89 2.15 M293.46 210.05 C346.51 150.08, 400.33 89.07, 475.19 1 M293.46 210.05 C343.22 152.89, 394.08 94.82, 475.19 1 M298.45 210.41 C352.2 148.4, 407.62 84.65, 479.52 2.11 M298.45 210.41 C356.43 142.32, 415.37 74.95, 479.52 2.11 M304.09 210.02 C345.69 159.05, 390.41 111.25, 484.51 2.47 M304.09 210.02 C355.38 151.26, 405.2 92.51, 484.51 2.47 M309.08 210.38 C374.72 136.1, 444.14 57.46, 488.84 3.59 M309.08 210.38 C372.71 139.56, 435.52 66.61, 488.84 3.59 M314.72 209.98 C353.69 165.94, 393.62 117.62, 492.51 5.46 M314.72 209.98 C353.43 166.65, 391.06 122.35, 492.51 5.46 M319.71 210.34 C366.18 156.02, 412.29 102.78, 496.19 7.33 M319.71 210.34 C382.79 139.59, 442.76 69.81, 496.19 7.33 M325.35 209.95 C375.59 152.88, 426.04 94.04, 499.21 9.95 M325.35 209.95 C388.29 135.42, 451.54 62.31, 499.21 9.95 M330.34 210.31 C384.1 150.66, 436.1 91.13, 501.57 13.33 M330.34 210.31 C383.15 149.22, 435.72 87.67, 501.57 13.33 M335.98 209.91 C385.6 156.29, 432.45 101.46, 503.28 17.46 M335.98 209.91 C371.61 168.35, 406.25 127.51, 503.28 17.46 M340.97 210.27 C386.4 162.26, 427.75 110.02, 504.98 21.6 M340.97 210.27 C398.09 141.26, 456.58 73.64, 504.98 21.6 M346.61 209.88 C399.08 147.45, 452.8 86.29, 506.69 25.73 M346.61 209.88 C391.16 156.65, 435.7 105.51, 506.69 25.73 M351.6 210.24 C395.58 158.81, 441.82 108.62, 506.43 32.13 M351.6 210.24 C386.67 169.13, 421.15 129.02, 506.43 32.13 M357.24 209.85 C388.76 175.47, 419.37 141.16, 506.82 37.77 M357.24 209.85 C402.31 157.91, 446.32 105.18, 506.82 37.77 M362.23 210.21 C412.6 153.28, 459.63 97.18, 506.56 44.17 M362.23 210.21 C416.73 147.23, 471.77 84.38, 506.56 44.17 M367.22 210.57 C412.25 158.83, 456.91 107.14, 506.96 49.81 M367.22 210.57 C402.49 168.48, 438.27 128.4, 506.96 49.81 M372.86 210.17 C422.57 151.37, 475.54 94.19, 506.7 56.21 M372.86 210.17 C415.15 162.99, 456.27 116, 506.7 56.21 M377.85 210.53 C422.4 156.43, 466.46 106.9, 506.43 62.61 M377.85 210.53 C415.79 165.57, 454.12 121.84, 506.43 62.61 M383.49 210.14 C429.04 158.04, 473.88 106.65, 506.83 68.25 M383.49 210.14 C413 178.06, 439.93 146.03, 506.83 68.25 M388.48 210.5 C415.68 180.3, 442.02 147.78, 506.57 74.65 M388.48 210.5 C421.37 172.22, 453.78 136.26, 506.57 74.65 M394.12 210.1 C425.08 178.93, 452.74 146.89, 506.96 80.29 M394.12 210.1 C435.02 164.03, 473.27 118.05, 506.96 80.29 M399.11 210.46 C433.15 173.66, 463.42 136.11, 506.7 86.69 M399.11 210.46 C441.11 161.9, 484.19 112.39, 506.7 86.69 M404.75 210.07 C429.29 184.95, 450.77 159, 507.1 92.33 M404.75 210.07 C432.04 180.27, 459.27 151.07, 507.1 92.33 M409.74 210.43 C431.86 184.22, 457.18 156.43, 506.83 98.73 M409.74 210.43 C440.14 175.34, 471.29 139.31, 506.83 98.73 M415.38 210.03 C435.36 185.56, 455.51 164.09, 506.57 105.13 M415.38 210.03 C444.81 176.73, 474.31 142.96, 506.57 105.13 M420.37 210.39 C446.01 181.67, 470.66 153.5, 506.97 110.77 M420.37 210.39 C449.7 177.15, 477.65 144.02, 506.97 110.77 M426.01 210 C444.08 190.54, 461.72 166.4, 506.71 117.17 M426.01 210 C446.24 185.46, 466.1 163.16, 506.71 117.17 M431 210.36 C460.84 177, 489.95 142.79, 507.1 122.81 M431 210.36 C456.54 179.09, 483.28 150.04, 507.1 122.81 M436.64 209.96 C452.25 194, 465.68 177.5, 506.84 129.21 M436.64 209.96 C462.16 181.73, 486.48 150.7, 506.84 129.21 M441.63 210.32 C461.18 185.17, 482.52 163.53, 507.23 134.85 M441.63 210.32 C458.25 190.48, 475.79 169.57, 507.23 134.85 M447.27 209.93 C467.35 185.3, 488.88 163.06, 506.97 141.25 M447.27 209.93 C465.43 187.2, 485.84 165.64, 506.97 141.25 M452.26 210.29 C468.71 190.11, 487.36 171.63, 506.71 147.65 M452.26 210.29 C465.7 193.3, 480.56 176.04, 506.71 147.65 M457.9 209.9 C478.17 188.54, 496.87 169.28, 507.11 153.29 M457.9 209.9 C478.06 188.15, 496.5 164.99, 507.11 153.29 M462.89 210.26 C475.17 197.5, 486.58 183.92, 506.84 159.69 M462.89 210.26 C474.96 194.56, 488.72 179.98, 506.84 159.69 M468.53 209.86 C482.25 194.62, 493.32 180.74, 507.24 165.33 M468.53 209.86 C482.39 193, 498.67 176.91, 507.24 165.33 M474.17 209.47 C484.39 196.07, 494.52 185.82, 506.98 171.73 M474.17 209.47 C486.69 196, 499.31 180.69, 506.98 171.73 M480.47 208.32 C487.43 201.3, 496.96 191.55, 506.72 178.13 M480.47 208.32 C488.94 198.39, 496.44 189.98, 506.72 178.13 M486.12 207.92 C492.68 204.15, 495.41 197.32, 505.8 185.28 M486.12 207.92 C492.04 200.82, 497.44 194.32, 505.8 185.28" stroke="#e9ecef" stroke-width="0.5" fill="none"></path><path d="M32 0 M32 0 C182.71 0.71, 333.99 0.19, 473.61 0 M32 0 C163.59 -2.03, 296.21 -1.92, 473.61 0 M473.61 0 C494.43 0.59, 504.74 10.57, 505.61 32 M473.61 0 C492.69 0.63, 504.04 12.17, 505.61 32 M505.61 32 C504.87 77.31, 506.63 122.94, 505.61 176.81 M505.61 32 C507.02 73.58, 507.54 115.12, 505.61 176.81 M505.61 176.81 C505.48 199.96, 493.79 207.08, 473.61 208.81 M505.61 176.81 C505.96 200, 495.18 206.74, 473.61 208.81 M473.61 208.81 C371.48 209.3, 269.83 208.7, 32 208.81 M473.61 208.81 C350.2 209.16, 226.33 208.63, 32 208.81 M32 208.81 C9.33 207.97, -1.26 198.86, 0 176.81 M32 208.81 C12.34 209.74, -1.47 200.36, 0 176.81 M0 176.81 C2.62 134.28, -0.54 92.03, 0 32 M0 176.81 C-0.86 124.63, -2 74.04, 0 32 M0 32 C0.37 11.41, 12.21 -0.54, 32 0 M0 32 C-0.87 9.13, 12.72 -0.52, 32 0" stroke="#1e1e1e" stroke-width="1" fill="none"></path></g><g transform="translate(335.70715071580605 28.21147182999715) rotate(0 223.43392944335938 90)"><text x="0" y="0" font-family="Virgil, Segoe UI Emoji" font-size="36px" fill="#e03131" text-anchor="start" style="white-space: pre;" direction="ltr" dominant-baseline="text-before-edge">class Human {</text><text x="0" y="45" font-family="Virgil, Segoe UI Emoji" font-size="36px" fill="#e03131" text-anchor="start" style="white-space: pre;" direction="ltr" dominant-baseline="text-before-edge">    static int population;</text><text x="0" y="90" font-family="Virgil, Segoe UI Emoji" font-size="36px" fill="#e03131" text-anchor="start" style="white-space: pre;" direction="ltr" dominant-baseline="text-before-edge">    string name;</text><text x="0" y="135" font-family="Virgil, Segoe UI Emoji" font-size="36px" fill="#e03131" text-anchor="start" style="white-space: pre;" direction="ltr" dominant-baseline="text-before-edge">}</text></g><g stroke-linecap="round" transform="translate(192.4386720401609 393.7199508716333) rotate(0 156.02690866308387 35.41845547988558)"><path d="M4.71 4.1 C4.71 4.1, 4.71 4.1, 4.71 4.1 M4.71 4.1 C4.71 4.1, 4.71 4.1, 4.71 4.1 M3.14 12 C6.59 9.1, 6.82 5.64, 11.67 2.19 M3.14 12 C6.26 8.53, 9.34 4.39, 11.67 2.19 M2.22 19.16 C5.82 13.67, 10.88 10.56, 18.62 0.29 M2.22 19.16 C5.73 14.02, 10.93 8.64, 18.62 0.29 M1.96 25.56 C8.6 16.78, 16.93 5.87, 23.61 0.65 M1.96 25.56 C9.66 17.03, 17.11 7.97, 23.61 0.65 M2.36 31.2 C12.69 21.45, 21.57 7.78, 29.25 0.26 M2.36 31.2 C8.3 24.62, 14.47 17.88, 29.25 0.26 M2.75 36.84 C13.1 25.58, 19.68 17.61, 34.24 0.62 M2.75 36.84 C9.04 28.39, 15.82 21.92, 34.24 0.62 M2.49 43.24 C14.46 28.72, 29.57 14.4, 39.23 0.98 M2.49 43.24 C13.99 30.05, 23.95 17.92, 39.23 0.98 M2.88 48.88 C14.96 36.3, 26.29 21.99, 44.87 0.58 M2.88 48.88 C14.93 35.83, 24.9 22.58, 44.87 0.58 M2.62 55.28 C13.36 40.68, 27.08 25.57, 49.86 0.94 M2.62 55.28 C21.3 34.76, 40.32 13.09, 49.86 0.94 M2.36 61.68 C20.93 38.88, 41.95 18.27, 55.5 0.55 M2.36 61.68 C23.58 37.7, 43.08 14.17, 55.5 0.55 M4.07 65.81 C15.89 51.7, 31.28 36.03, 60.49 0.91 M4.07 65.81 C24.09 44.92, 41.95 22.54, 60.49 0.91 M7.09 68.44 C21.29 51.8, 33.93 38.22, 66.13 0.51 M7.09 68.44 C18.78 54.42, 32.65 40.01, 66.13 0.51 M10.76 70.31 C31.56 47.52, 51.91 21.96, 71.12 0.87 M10.76 70.31 C23.42 55.17, 37.46 41.38, 71.12 0.87 M15.09 71.42 C34.71 49.31, 55.91 24.86, 76.76 0.48 M15.09 71.42 C33.31 50.98, 52.33 28.61, 76.76 0.48 M20.08 71.78 C34.88 57.48, 47.47 44.14, 81.75 0.84 M20.08 71.78 C36.52 52.41, 53.21 33.09, 81.75 0.84 M25.72 71.39 C48.09 46.18, 72.03 18.21, 87.39 0.44 M25.72 71.39 C38.06 58.01, 50.4 43.19, 87.39 0.44 M30.71 71.75 C50.73 48.37, 75.99 18.77, 92.38 0.8 M30.71 71.75 C44.47 57.66, 57.73 42.06, 92.38 0.8 M36.35 71.35 C57.44 48.88, 77.79 24.88, 98.02 0.41 M36.35 71.35 C58.76 45, 81.08 18.6, 98.02 0.41 M41.34 71.71 C54.52 55.29, 72.24 38.61, 103.01 0.77 M41.34 71.71 C57.33 52.63, 74.48 34.44, 103.01 0.77 M46.33 72.07 C63.9 53.17, 81.82 32.61, 108.65 0.37 M46.33 72.07 C62.33 53.76, 80.27 34.8, 108.65 0.37 M51.97 71.68 C69.32 52.63, 81.18 36.18, 113.64 0.73 M51.97 71.68 C72.26 49.31, 92.7 25.22, 113.64 0.73 M56.96 72.04 C74.75 50.25, 97.02 29.35, 119.28 0.34 M56.96 72.04 C72.97 53.75, 88.74 37.55, 119.28 0.34 M62.6 71.64 C78.03 52.09, 94.16 35.61, 124.27 0.7 M62.6 71.64 C77.27 52.52, 94.04 35.15, 124.27 0.7 M67.59 72 C82.72 54.02, 97.77 37.23, 129.26 1.06 M67.59 72 C85.31 53.04, 100.02 34.49, 129.26 1.06 M73.23 71.61 C92.12 50.37, 112.78 26.8, 134.9 0.66 M73.23 71.61 C94.66 48.28, 114.75 25.65, 134.9 0.66 M78.22 71.97 C100.48 45.78, 122.17 25.03, 139.89 1.03 M78.22 71.97 C101.47 44.35, 126.15 15.94, 139.89 1.03 M83.86 71.57 C104.97 45.41, 127.73 22.82, 145.53 0.63 M83.86 71.57 C97.44 56.02, 110.32 41.04, 145.53 0.63 M88.85 71.93 C109.23 48, 131.66 21.35, 150.52 0.99 M88.85 71.93 C106.5 50.07, 125.55 30.17, 150.52 0.99 M94.49 71.54 C109.68 52.51, 122.82 36.99, 156.16 0.6 M94.49 71.54 C119.57 42.73, 144.21 14.3, 156.16 0.6 M99.48 71.9 C119.63 48.31, 140.28 25.74, 161.15 0.96 M99.48 71.9 C120.31 48.79, 139.46 25.21, 161.15 0.96 M105.12 71.5 C127.93 44.4, 150.6 15.48, 166.79 0.56 M105.12 71.5 C125.9 47.22, 148.58 22.1, 166.79 0.56 M110.11 71.86 C129.92 49.75, 150.13 28.55, 171.78 0.92 M110.11 71.86 C126.5 53.62, 142.36 35.57, 171.78 0.92 M115.75 71.47 C133.22 50.99, 151.48 29.3, 177.42 0.53 M115.75 71.47 C137.38 45.06, 160.75 18.96, 177.42 0.53 M120.74 71.83 C140.12 51.62, 159.32 26.76, 182.41 0.89 M120.74 71.83 C143.25 46.58, 162.8 22.56, 182.41 0.89 M126.38 71.44 C141.12 54.38, 152.48 38.83, 188.05 0.49 M126.38 71.44 C145.44 50.33, 163.34 29.22, 188.05 0.49 M131.37 71.8 C152.65 49.84, 172.83 25.36, 193.04 0.85 M131.37 71.8 C148.45 51.15, 166.57 32.92, 193.04 0.85 M136.35 72.16 C158.74 48.37, 177.73 26.83, 198.68 0.46 M136.35 72.16 C151.53 54.07, 167.18 35.65, 198.68 0.46 M142 71.76 C162.29 47.64, 182.3 27.05, 203.67 0.82 M142 71.76 C156.34 55.99, 169.27 40.5, 203.67 0.82 M146.98 72.12 C163.47 53.34, 183.48 33.74, 209.31 0.42 M146.98 72.12 C166.61 49.39, 185.64 28.57, 209.31 0.42 M152.63 71.73 C168.81 55.38, 180.76 36.99, 214.3 0.78 M152.63 71.73 C174.66 47.89, 196.61 22.65, 214.3 0.78 M157.61 72.09 C175.36 47.94, 195.57 25.96, 219.28 1.14 M157.61 72.09 C180.84 47.47, 202.85 22.16, 219.28 1.14 M163.26 71.69 C186.42 47.55, 210.67 18.58, 224.93 0.75 M163.26 71.69 C183.85 49, 202.76 24.96, 224.93 0.75 M168.24 72.05 C188.68 47.36, 213.17 22.34, 229.91 1.11 M168.24 72.05 C184.75 52.22, 201.37 33.64, 229.91 1.11 M173.89 71.66 C186.4 54.54, 202.63 39.14, 235.56 0.71 M173.89 71.66 C188.53 54.78, 201.3 39.32, 235.56 0.71 M178.87 72.02 C197.41 50.89, 211.98 33.3, 240.54 1.07 M178.87 72.02 C199.92 47.46, 222.48 22.35, 240.54 1.07 M184.52 71.62 C196.65 53.85, 211.84 36.62, 246.19 0.68 M184.52 71.62 C199.02 54.69, 214.31 37.93, 246.19 0.68 M189.5 71.98 C204.61 55.4, 216.86 40.21, 251.17 1.04 M189.5 71.98 C206.85 52.95, 223.14 32.84, 251.17 1.04 M195.15 71.59 C210.72 55.12, 226.57 35.04, 256.82 0.65 M195.15 71.59 C217.38 46.08, 237.86 22.45, 256.82 0.65 M200.13 71.95 C221.85 46.2, 242.49 23.78, 261.8 1.01 M200.13 71.95 C223.22 47.43, 244.14 21.92, 261.8 1.01 M205.78 71.55 C219.76 51.88, 239.32 34.51, 267.45 0.61 M205.78 71.55 C220.14 55.9, 232.57 40.81, 267.45 0.61 M210.76 71.91 C225.42 54.18, 238.85 36.67, 272.43 0.97 M210.76 71.91 C226.85 51.86, 242.94 34.1, 272.43 0.97 M216.41 71.52 C232.42 51.56, 248.53 32.39, 278.08 0.58 M216.41 71.52 C235.82 48.8, 257.02 25.3, 278.08 0.58 M221.39 71.88 C236 53.63, 255 33.04, 283.06 0.94 M221.39 71.88 C240.78 49.39, 260.88 27.39, 283.06 0.94 M226.38 72.24 C249.38 45.58, 275.54 14, 288.71 0.54 M226.38 72.24 C243.33 52.97, 259.4 34.75, 288.71 0.54 M232.02 71.84 C250.12 49.96, 270.34 24.56, 293.69 0.9 M232.02 71.84 C255.89 44.41, 278.03 16.34, 293.69 0.9 M237.01 72.21 C259.7 43.54, 285.05 15.41, 299.34 0.51 M237.01 72.21 C250.09 54.81, 265.49 39.67, 299.34 0.51 M242.65 71.81 C264.1 44.36, 289.29 19.9, 303.01 2.38 M242.65 71.81 C266.19 45, 290.68 17.61, 303.01 2.38 M247.64 72.17 C265.71 51.31, 285.7 27.43, 306.69 4.25 M247.64 72.17 C266 52.5, 281.68 33.21, 306.69 4.25 M253.29 71.78 C273.55 48.62, 290.87 24.24, 309.71 6.87 M253.29 71.78 C266.1 57.46, 278.01 43.98, 309.71 6.87 M258.27 72.14 C273.03 51.7, 291.13 35.59, 311.41 11 M258.27 72.14 C275.56 51.65, 295.47 29.16, 311.41 11 M263.92 71.74 C278.47 55.34, 296.16 36.21, 311.81 16.65 M263.92 71.74 C282.41 50.77, 300.44 28.59, 311.81 16.65 M268.9 72.1 C284.11 55.05, 300.32 37.47, 312.2 22.29 M268.9 72.1 C286.73 53.33, 302.42 33.32, 312.2 22.29 M274.55 71.71 C282.99 61.96, 292.75 53.67, 311.94 28.69 M274.55 71.71 C288.68 55.84, 302.35 39.87, 311.94 28.69 M279.53 72.07 C287.65 61.25, 299.7 51.89, 312.34 34.33 M279.53 72.07 C292.61 57.86, 304.12 41.47, 312.34 34.33 M285.18 71.67 C296.41 58.93, 304.33 46.72, 312.07 40.73 M285.18 71.67 C293.69 61, 301.68 51.68, 312.07 40.73 M290.16 72.03 C295.4 66.04, 302.57 55.71, 312.47 46.37 M290.16 72.03 C296.26 66.05, 302.18 58.2, 312.47 46.37 M295.81 71.64 C300.9 64.85, 308.53 56.45, 312.21 52.77 M295.81 71.64 C299.76 66.51, 305.75 60.95, 312.21 52.77 M302.76 69.73 C307.87 64.41, 308.88 61.25, 312.6 58.41 M302.76 69.73 C305.64 66.91, 308.15 62.45, 312.6 58.41" stroke="#e9ecef" stroke-width="0.5" fill="none"></path><path d="M17.71 0 M17.71 0 C74.43 2.17, 128.26 0.44, 294.34 0 M17.71 0 C76.2 -0.1, 133.98 1.34, 294.34 0 M294.34 0 C304.46 -0.07, 312.68 5.14, 312.05 17.71 M294.34 0 C307.35 -1.83, 314.1 5.45, 312.05 17.71 M312.05 17.71 C311.94 30.2, 312.88 40.94, 312.05 53.13 M312.05 17.71 C312.44 30.07, 312.34 43.68, 312.05 53.13 M312.05 53.13 C313.6 64.94, 308.03 70.65, 294.34 70.84 M312.05 53.13 C312.83 64.41, 307.86 71.34, 294.34 70.84 M294.34 70.84 C192.7 73.25, 91.81 72.11, 17.71 70.84 M294.34 70.84 C187.11 69.69, 81.23 69.85, 17.71 70.84 M17.71 70.84 C4.18 69.5, -0.16 66.7, 0 53.13 M17.71 70.84 C7.74 71.95, 1.13 66.1, 0 53.13 M0 53.13 C1.16 41.68, -0.69 28.25, 0 17.71 M0 53.13 C-0.2 41.3, 0.23 31.49, 0 17.71 M0 17.71 C-0.62 6.87, 7.18 1.46, 17.71 0 M0 17.71 C-1.58 7.2, 7.42 -1.49, 17.71 0" stroke="#2f9e44" stroke-width="1" fill="none"></path></g><g transform="translate(248.82960944381773 408.4475291490455) rotate(0 100.83597564697266 22.5)"><text x="0" y="0" font-family="Virgil, Segoe UI Emoji" font-size="36px" fill="#2f9e44" text-anchor="start" style="white-space: pre;" direction="ltr" dominant-baseline="text-before-edge">Human Elon;</text></g><g stroke-linecap="round" transform="translate(568.7344419033711 389.4493316458329) rotate(0 156.02690866308387 35.41845547988558)"><path d="M4.71 4.1 C4.71 4.1, 4.71 4.1, 4.71 4.1 M4.71 4.1 C4.71 4.1, 4.71 4.1, 4.71 4.1 M3.14 12 C6.09 9.41, 8.72 7.56, 11.67 2.19 M3.14 12 C5.43 9.17, 6.41 7.21, 11.67 2.19 M2.22 19.16 C5.84 15.8, 10.88 9.74, 18.62 0.29 M2.22 19.16 C6.55 14.54, 12.21 8.47, 18.62 0.29 M1.96 25.56 C9.05 16.17, 17.98 6.84, 23.61 0.65 M1.96 25.56 C8.48 19.52, 13.14 13.22, 23.61 0.65 M2.36 31.2 C12.18 23.07, 19.05 9.65, 29.25 0.26 M2.36 31.2 C10.44 22.1, 16.79 13.56, 29.25 0.26 M2.75 36.84 C14.81 26.13, 23 11.54, 34.24 0.62 M2.75 36.84 C12.05 24.94, 23.63 13.95, 34.24 0.62 M2.49 43.24 C13.01 32.4, 21.64 19.54, 39.23 0.98 M2.49 43.24 C14.11 31.69, 23.6 17.73, 39.23 0.98 M2.88 48.88 C18.56 34.01, 30.07 17.26, 44.87 0.58 M2.88 48.88 C17.21 33.05, 30.68 17.06, 44.87 0.58 M2.62 55.28 C21.41 35.24, 35.6 17.69, 49.86 0.94 M2.62 55.28 C20.06 35.5, 35.73 16.09, 49.86 0.94 M2.36 61.68 C21.2 38.87, 43.75 15.41, 55.5 0.55 M2.36 61.68 C14.13 48.39, 24.55 35.76, 55.5 0.55 M4.07 65.81 C23.15 46.25, 40.65 23.01, 60.49 0.91 M4.07 65.81 C20.44 48.81, 36.77 29.86, 60.49 0.91 M7.09 68.44 C27.24 44.82, 49.32 19.17, 66.13 0.51 M7.09 68.44 C31.25 42.05, 53.42 13.9, 66.13 0.51 M10.76 70.31 C31.91 45.23, 54.27 22.49, 71.12 0.87 M10.76 70.31 C31.63 45.97, 53.11 21.32, 71.12 0.87 M15.09 71.42 C40.77 44.32, 62.24 16.17, 76.76 0.48 M15.09 71.42 C38 44.63, 63.77 17.07, 76.76 0.48 M20.08 71.78 C36.65 52.32, 51.66 35.85, 81.75 0.84 M20.08 71.78 C32.74 57.6, 45.02 42.71, 81.75 0.84 M25.72 71.39 C47.51 43.86, 72.43 18.3, 87.39 0.44 M25.72 71.39 C48.23 43.98, 72.82 17.98, 87.39 0.44 M30.71 71.75 C53.32 47.5, 73.76 23.44, 92.38 0.8 M30.71 71.75 C54.1 46.08, 75.41 18.83, 92.38 0.8 M36.35 71.35 C54.94 50.44, 70.24 33.83, 98.02 0.41 M36.35 71.35 C59.96 44.03, 84.95 15.66, 98.02 0.41 M41.34 71.71 C62.25 47.09, 82.09 27.22, 103.01 0.77 M41.34 71.71 C63.22 45.66, 84.9 21.24, 103.01 0.77 M46.33 72.07 C66.61 47.03, 89.89 20.97, 108.65 0.37 M46.33 72.07 C68.69 45.2, 92.01 18.51, 108.65 0.37 M51.97 71.68 C64.63 55.8, 78.2 43.71, 113.64 0.73 M51.97 71.68 C71.78 48.81, 90.86 25.01, 113.64 0.73 M56.96 72.04 C72.01 57.4, 87.78 36.64, 119.28 0.34 M56.96 72.04 C75.35 51.18, 93.48 29.9, 119.28 0.34 M62.6 71.64 C74.21 56.83, 89.65 40.59, 124.27 0.7 M62.6 71.64 C76.41 56.66, 89.15 40.44, 124.27 0.7 M67.59 72 C86.95 49.51, 108.94 23.6, 129.26 1.06 M67.59 72 C85.4 53.26, 101.11 33.8, 129.26 1.06 M73.23 71.61 C88.7 55.53, 102.49 35.87, 134.9 0.66 M73.23 71.61 C88.98 51.45, 107.22 32.02, 134.9 0.66 M78.22 71.97 C96.65 52.18, 112.48 32.66, 139.89 1.03 M78.22 71.97 C102.57 44.11, 128.09 16.12, 139.89 1.03 M83.86 71.57 C99.44 55.72, 113.56 36.94, 145.53 0.63 M83.86 71.57 C101.4 51.22, 117.75 32.81, 145.53 0.63 M88.85 71.93 C106.48 48.96, 126.44 30.62, 150.52 0.99 M88.85 71.93 C109.7 49.5, 128.3 26.84, 150.52 0.99 M94.49 71.54 C118.98 44.53, 140.47 16.06, 156.16 0.6 M94.49 71.54 C112.83 51.56, 129.01 32.53, 156.16 0.6 M99.48 71.9 C111.12 56.68, 125.7 40.19, 161.15 0.96 M99.48 71.9 C117.66 50.47, 137.77 29.25, 161.15 0.96 M105.12 71.5 C126.83 48.89, 143.91 26.8, 166.79 0.56 M105.12 71.5 C126.26 46.84, 147.03 24.06, 166.79 0.56 M110.11 71.86 C128.32 52.7, 145.02 31.53, 171.78 0.92 M110.11 71.86 C131.32 47.16, 152.99 21.83, 171.78 0.92 M115.75 71.47 C137.8 45.41, 160.1 17.59, 177.42 0.53 M115.75 71.47 C138.14 45.1, 160.91 19.43, 177.42 0.53 M120.74 71.83 C140.72 48.77, 161.43 24.05, 182.41 0.89 M120.74 71.83 C136.59 53.94, 154.11 34.35, 182.41 0.89 M126.38 71.44 C140.49 54.22, 155.19 37.88, 188.05 0.49 M126.38 71.44 C142.15 55.3, 154.93 37.98, 188.05 0.49 M131.37 71.8 C155.37 43.61, 176.86 17.29, 193.04 0.85 M131.37 71.8 C153.93 44.74, 177.58 17.49, 193.04 0.85 M136.35 72.16 C158.38 45.91, 182.68 20.48, 198.68 0.46 M136.35 72.16 C155.72 49.39, 175.95 26.68, 198.68 0.46 M142 71.76 C160.54 50.96, 176.15 34.37, 203.67 0.82 M142 71.76 C158.05 53.83, 173.74 35.88, 203.67 0.82 M146.98 72.12 C171.99 46.08, 196.16 17.74, 209.31 0.42 M146.98 72.12 C168.74 46.45, 189.58 23.34, 209.31 0.42 M152.63 71.73 C168.76 54.27, 185.24 35.16, 214.3 0.78 M152.63 71.73 C175.48 44.37, 199.18 20, 214.3 0.78 M157.61 72.09 C179.55 43.2, 207.34 15.72, 219.28 1.14 M157.61 72.09 C177.31 49.54, 196.34 28.37, 219.28 1.14 M163.26 71.69 C187.67 47.04, 210.87 18.16, 224.93 0.75 M163.26 71.69 C178.68 55.59, 193.7 38.2, 224.93 0.75 M168.24 72.05 C189.52 49.04, 211.42 24.27, 229.91 1.11 M168.24 72.05 C181.98 55.83, 195.6 40.17, 229.91 1.11 M173.89 71.66 C187.58 54.5, 205.96 37.34, 235.56 0.71 M173.89 71.66 C189.88 51.14, 207.33 32.21, 235.56 0.71 M178.87 72.02 C194.22 55.23, 209.98 37.79, 240.54 1.07 M178.87 72.02 C198.69 51.09, 217.76 29.56, 240.54 1.07 M184.52 71.62 C207.63 46.2, 227.59 20.67, 246.19 0.68 M184.52 71.62 C207.38 46.02, 230.1 20.58, 246.19 0.68 M189.5 71.98 C211.02 45.45, 235.33 19.1, 251.17 1.04 M189.5 71.98 C203.06 56.89, 216.01 41.91, 251.17 1.04 M195.15 71.59 C212.91 49.06, 229.65 29.56, 256.82 0.65 M195.15 71.59 C210.72 55.12, 226.06 37.58, 256.82 0.65 M200.13 71.95 C212.59 57.56, 225.01 41.78, 261.8 1.01 M200.13 71.95 C214.86 56.96, 228.69 41.43, 261.8 1.01 M205.78 71.55 C225.02 44.79, 249.56 24.11, 267.45 0.61 M205.78 71.55 C225.52 47.35, 247.28 23.89, 267.45 0.61 M210.76 71.91 C229.48 49.01, 249.19 26.93, 272.43 0.97 M210.76 71.91 C224.22 55.41, 237.73 41.49, 272.43 0.97 M216.41 71.52 C239.03 45.31, 261.72 22.34, 278.08 0.58 M216.41 71.52 C239.31 45.31, 261.53 20.27, 278.08 0.58 M221.39 71.88 C243.42 48.7, 262.85 25.84, 283.06 0.94 M221.39 71.88 C241.36 47.62, 263.5 23.83, 283.06 0.94 M226.38 72.24 C247.72 44.67, 268.81 20.4, 288.71 0.54 M226.38 72.24 C242.02 52.27, 258.45 32.66, 288.71 0.54 M232.02 71.84 C248.82 55.06, 263.37 33.86, 293.69 0.9 M232.02 71.84 C251.95 48.89, 272.99 24.88, 293.69 0.9 M237.01 72.21 C251.16 57.16, 263.86 41.06, 299.34 0.51 M237.01 72.21 C256.34 49.29, 277.35 26.89, 299.34 0.51 M242.65 71.81 C260.8 50.56, 279.74 30.6, 303.01 2.38 M242.65 71.81 C264.47 46.64, 286.27 20.64, 303.01 2.38 M247.64 72.17 C270.01 44.76, 295.31 18.94, 306.69 4.25 M247.64 72.17 C261.59 58.51, 273.8 43.69, 306.69 4.25 M253.29 71.78 C273.83 50.09, 292.79 25.49, 309.71 6.87 M253.29 71.78 C264.3 57.72, 276.26 44.39, 309.71 6.87 M258.27 72.14 C276.83 53.68, 291.26 33.69, 311.41 11 M258.27 72.14 C278.28 49.93, 298.35 27.17, 311.41 11 M263.92 71.74 C276.18 56.5, 289.42 40.35, 311.81 16.65 M263.92 71.74 C280 54.51, 295.29 36.87, 311.81 16.65 M268.9 72.1 C280.47 59.82, 291.21 44.66, 312.2 22.29 M268.9 72.1 C278.21 61.51, 286.56 50.04, 312.2 22.29 M274.55 71.71 C284.67 60.46, 297.01 45.45, 311.94 28.69 M274.55 71.71 C286.45 59.29, 296.18 47.44, 311.94 28.69 M279.53 72.07 C290.5 60.08, 297.81 51.32, 312.34 34.33 M279.53 72.07 C290.17 59.32, 301.91 47.32, 312.34 34.33 M285.18 71.67 C294.99 61.24, 304.71 47.47, 312.07 40.73 M285.18 71.67 C291.57 64.05, 297.7 58.06, 312.07 40.73 M290.16 72.03 C296.97 66.02, 301.01 58.5, 312.47 46.37 M290.16 72.03 C296.71 65.16, 303.52 56.72, 312.47 46.37 M295.81 71.64 C301.44 66.22, 303.62 62.14, 312.21 52.77 M295.81 71.64 C302.22 64.61, 307.83 56.5, 312.21 52.77 M302.76 69.73 C306.55 66.34, 311.39 62.09, 312.6 58.41 M302.76 69.73 C304.37 66.53, 306.73 65.41, 312.6 58.41" stroke="#e9ecef" stroke-width="0.5" fill="none"></path><path d="M17.71 0 M17.71 0 C120.68 0.66, 223.48 -0.16, 294.34 0 M17.71 0 C102.31 -1.19, 186.36 -1.32, 294.34 0 M294.34 0 C308.04 1.63, 312.9 5.88, 312.05 17.71 M294.34 0 C305.35 1.81, 310.54 4.55, 312.05 17.71 M312.05 17.71 C312.51 30.2, 311.82 42.46, 312.05 53.13 M312.05 17.71 C311.89 29.02, 312.12 40.73, 312.05 53.13 M312.05 53.13 C312.76 66.37, 307.87 70.54, 294.34 70.84 M312.05 53.13 C313.84 65.21, 306.81 71.46, 294.34 70.84 M294.34 70.84 C190.39 69.8, 82.3 70.93, 17.71 70.84 M294.34 70.84 C188.38 68.34, 83.37 69.03, 17.71 70.84 M17.71 70.84 C7.52 72.38, 0.41 64.53, 0 53.13 M17.71 70.84 C5.98 71.06, 0.42 65.58, 0 53.13 M0 53.13 C-0.56 43.33, 0.99 37.51, 0 17.71 M0 53.13 C0.18 40.27, 1.08 29.73, 0 17.71 M0 17.71 C0.19 4.21, 6.54 1.16, 17.71 0 M0 17.71 C1.78 3.99, 6.5 -0.78, 17.71 0" stroke="#f08c00" stroke-width="1" fill="none"></path></g><g transform="translate(611.8591357421967 402.850249130047) rotate(0 115.81196594238281 22.5)"><text x="0" y="0" font-family="Virgil, Segoe UI Emoji" font-size="36px" fill="#f08c00" text-anchor="start" style="white-space: pre;" direction="ltr" dominant-baseline="text-before-edge">Human Steve;</text></g><g stroke-linecap="round"><g transform="translate(510.15726714086816 240.13177997198312) rotate(0 -93.20574040987012 70.30892181505256)"><path d="M2.36 1.08 C-17.23 10.39, -88.46 35.43, -120.31 58.4 C-152.16 81.36, -177.77 125.21, -188.77 138.88 M0.19 -0.81 C-19.39 10.13, -91.23 37.87, -121.78 61.58 C-152.33 85.29, -172.48 127.81, -183.1 141.43" stroke="#f08c00" stroke-width="1" fill="none"></path></g><g transform="translate(510.15726714086816 240.13177997198312) rotate(0 -93.20574040987012 70.30892181505256)"><path d="M-174.85 114.22 C-178.38 115.08, -180.04 124.49, -182.41 141.95 M-177.68 112.11 C-180.25 119.76, -182.73 132.09, -184.07 140.12" stroke="#f08c00" stroke-width="1" fill="none"></path></g><g transform="translate(510.15726714086816 240.13177997198312) rotate(0 -93.20574040987012 70.30892181505256)"><path d="M-157.63 125.37 C-164.8 124.29, -169.91 131.47, -182.41 141.95 M-160.45 123.27 C-168.26 127.3, -176.2 136.1, -184.07 140.12" stroke="#f08c00" stroke-width="1" fill="none"></path></g></g><mask></mask><g stroke-linecap="round"><g transform="translate(596.2732788556822 242.34585444341315) rotate(0 54.42332765160296 69.3006334496366)"><path d="M-0.58 1.8 C11.36 12.61, 53.34 41.68, 71.67 64.43 C90 87.18, 103.27 126.09, 109.42 138.3 M4.31 0.3 C15.92 11.51, 52.5 44.98, 69.77 67.29 C87.03 89.59, 101.34 123.24, 107.89 134.14" stroke="#f08c00" stroke-width="1" fill="none"></path></g><g transform="translate(596.2732788556822 242.34585444341315) rotate(0 54.42332765160296 69.3006334496366)"><path d="M88.3 114.79 C90.34 120.84, 102.69 125.81, 110.63 133.68 M84.21 113.78 C93.71 122.86, 102.66 128.5, 109.39 133.32" stroke="#f08c00" stroke-width="1" fill="none"></path></g><g transform="translate(596.2732788556822 242.34585444341315) rotate(0 54.42332765160296 69.3006334496366)"><path d="M106.49 105.29 C102.99 114.14, 109.84 121.98, 110.63 133.68 M102.39 104.28 C105.76 116.39, 108.4 125.33, 109.39 133.32" stroke="#f08c00" stroke-width="1" fill="none"></path></g></g><mask></mask><g stroke-linecap="round" transform="translate(339.04175369283007 558.7400703825615) rotate(0 233.4851944434468 46.43173102119306)"><path d="M5.52 6.13 C5.52 6.13, 5.52 6.13, 5.52 6.13 M5.52 6.13 C5.52 6.13, 5.52 6.13, 5.52 6.13 M3.29 14.79 C4.39 9.96, 7.71 8.99, 13.79 2.71 M3.29 14.79 C4.76 10.96, 7.9 9.06, 13.79 2.71 M0.41 24.21 C7.08 13.82, 13.43 6.78, 20.09 1.56 M0.41 24.21 C8.39 16.69, 15.86 8.82, 20.09 1.56 M0.8 29.85 C4.87 21.54, 10.76 13.73, 25.08 1.92 M0.8 29.85 C8.09 18.53, 16.76 8.76, 25.08 1.92 M1.2 35.49 C13.82 29.58, 17.93 13.6, 30.72 1.53 M1.2 35.49 C11.13 24.55, 25.53 9.32, 30.72 1.53 M0.94 41.89 C5.7 32.21, 16.56 23.69, 35.71 1.89 M0.94 41.89 C14.13 24.71, 30.65 12.44, 35.71 1.89 M1.33 47.53 C14.63 33.97, 24.56 25.88, 41.35 1.49 M1.33 47.53 C15.17 27.76, 33.37 14.24, 41.35 1.49 M1.73 53.18 C14.42 43.22, 26.8 22.25, 46.34 1.85 M1.73 53.18 C13.37 41.89, 25.13 28.61, 46.34 1.85 M1.46 59.57 C19.75 40.52, 37.94 14.5, 51.98 1.46 M1.46 59.57 C17.99 41.68, 32.75 23.26, 51.98 1.46 M1.86 65.22 C14.71 47.55, 23.61 37.62, 56.97 1.82 M1.86 65.22 C20.83 42.52, 42.7 19.45, 56.97 1.82 M2.25 70.86 C21.39 42.7, 46.97 18.33, 62.61 1.43 M2.25 70.86 C27.52 42.69, 49.03 17.39, 62.61 1.43 M1.99 77.26 C19.18 59.43, 26.28 44.91, 67.6 1.79 M1.99 77.26 C21.34 54.92, 39.66 36.29, 67.6 1.79 M3.7 81.39 C24.21 66.46, 35.74 45.28, 72.58 2.15 M3.7 81.39 C21.29 62.98, 37.12 42.75, 72.58 2.15 M5.4 85.52 C24.13 64.02, 42.07 42.69, 78.23 1.75 M5.4 85.52 C33.91 52.19, 63.62 20.37, 78.23 1.75 M7.77 88.9 C25.51 66.24, 45.68 51.61, 83.21 2.11 M7.77 88.9 C31.28 62.92, 54.97 33, 83.21 2.11 M11.44 90.77 C32.3 63.23, 59.2 40.34, 88.86 1.72 M11.44 90.77 C31.22 67.67, 52.84 43.71, 88.86 1.72 M15.12 92.64 C32.53 74.54, 48.84 58.81, 93.84 2.08 M15.12 92.64 C31.39 71.17, 50.71 46.07, 93.84 2.08 M19.45 93.76 C46.6 59.1, 71.09 33.83, 99.49 1.68 M19.45 93.76 C47.1 56.95, 76.7 24.55, 99.49 1.68 M24.44 94.12 C57.21 64.87, 78.19 33.77, 104.47 2.04 M24.44 94.12 C54.4 62.42, 83.91 29.88, 104.47 2.04 M30.08 93.72 C59.1 60.63, 82.13 28.97, 110.12 1.65 M30.08 93.72 C49.42 72.35, 70.67 49.08, 110.12 1.65 M35.07 94.08 C50.82 76.38, 68.07 54.22, 115.1 2.01 M35.07 94.08 C64.32 62.49, 91.33 28.96, 115.1 2.01 M40.71 93.69 C65.27 65.99, 91.42 36.55, 120.75 1.61 M40.71 93.69 C68.03 61.15, 93.02 30.51, 120.75 1.61 M45.7 94.05 C68.53 71.57, 90.88 44.2, 125.73 1.97 M45.7 94.05 C76.4 60.03, 105.67 24.19, 125.73 1.97 M51.34 93.65 C62.16 72.89, 81.05 54.28, 131.38 1.58 M51.34 93.65 C74.28 65.95, 99.68 38.7, 131.38 1.58 M56.33 94.01 C85.43 57.28, 116.83 25.52, 136.36 1.94 M56.33 94.01 C84.71 58.88, 115.03 25.93, 136.36 1.94 M61.97 93.62 C79.45 68.35, 103.83 51.96, 142.01 1.54 M61.97 93.62 C82.05 70.87, 106.01 41.8, 142.01 1.54 M66.96 93.98 C96.8 58.22, 122.35 28.92, 147 1.9 M66.96 93.98 C95.09 63.25, 124.17 31.1, 147 1.9 M72.6 93.58 C107.78 61.08, 131.68 26, 152.64 1.51 M72.6 93.58 C100.15 63.18, 127.14 32.37, 152.64 1.51 M77.59 93.94 C104.85 62.21, 133 33.24, 157.63 1.87 M77.59 93.94 C99.22 67.27, 124.54 38, 157.63 1.87 M83.23 93.55 C102.55 70.86, 123.23 54.14, 162.61 2.23 M83.23 93.55 C111.95 59.95, 141.43 25.13, 162.61 2.23 M88.22 93.91 C107.95 72.54, 124.6 50.33, 168.26 1.84 M88.22 93.91 C112.86 68.6, 132.54 42.71, 168.26 1.84 M93.2 94.27 C122.85 57.64, 147.55 31.94, 173.24 2.2 M93.2 94.27 C120.73 61.85, 152.97 28.05, 173.24 2.2 M98.85 93.88 C123.74 63.6, 142.39 40.11, 178.89 1.8 M98.85 93.88 C121.58 66.04, 147.3 37.88, 178.89 1.8 M103.83 94.24 C134.02 60.59, 161.16 20.6, 183.87 2.16 M103.83 94.24 C135.19 59.26, 166.71 22.24, 183.87 2.16 M109.48 93.84 C133.99 62.88, 157.85 35.54, 189.52 1.77 M109.48 93.84 C130.74 66.75, 156.56 41.18, 189.52 1.77 M114.46 94.2 C136.1 72.62, 154.02 47.95, 194.5 2.13 M114.46 94.2 C141.11 63.7, 166.5 29.97, 194.5 2.13 M120.11 93.81 C139.15 68.19, 163.22 51.3, 200.15 1.73 M120.11 93.81 C143.52 66.21, 166.8 39.62, 200.15 1.73 M125.09 94.17 C143.19 70.48, 160.12 52.68, 205.13 2.09 M125.09 94.17 C143.75 71.71, 164.33 48.52, 205.13 2.09 M130.74 93.77 C144.4 76.78, 165.67 50.19, 210.78 1.7 M130.74 93.77 C151.51 69.83, 173.74 42.82, 210.78 1.7 M135.72 94.13 C156.74 71.85, 174.95 43.31, 215.76 2.06 M135.72 94.13 C163.07 62.15, 191.75 29.89, 215.76 2.06 M141.37 93.74 C164.97 68.22, 184.5 39.16, 221.41 1.66 M141.37 93.74 C174.86 55.37, 206.57 21.74, 221.41 1.66 M146.35 94.1 C172.12 60.49, 202 27.67, 226.39 2.02 M146.35 94.1 C166.38 71.48, 184.53 46.97, 226.39 2.02 M152 93.7 C177.17 69.59, 194.21 42.19, 232.04 1.63 M152 93.7 C171.35 76.94, 184.98 57.23, 232.04 1.63 M156.98 94.06 C183.75 65.88, 209.95 32.2, 237.02 1.99 M156.98 94.06 C182.77 68.84, 205.11 38.52, 237.02 1.99 M162.63 93.67 C188.25 64.64, 210.4 32.89, 242.67 1.59 M162.63 93.67 C187.4 66.55, 210.16 39.34, 242.67 1.59 M167.61 94.03 C196.54 61.16, 224.13 23.4, 247.65 1.95 M167.61 94.03 C189.95 69.76, 213.4 44.97, 247.65 1.95 M173.26 93.63 C197.1 59.3, 226.2 32.85, 252.64 2.31 M173.26 93.63 C197.56 68, 220.12 40.52, 252.64 2.31 M178.24 93.99 C197.87 69.2, 226.41 40.81, 258.28 1.92 M178.24 93.99 C198.74 68.04, 219.33 43.07, 258.28 1.92 M183.23 94.35 C205.43 71.86, 216.54 56.82, 263.27 2.28 M183.23 94.35 C202.05 70.09, 224.21 47.88, 263.27 2.28 M188.87 93.96 C205.92 70.93, 227.64 46.45, 268.91 1.89 M188.87 93.96 C219.98 59.08, 249.71 23.18, 268.91 1.89 M193.86 94.32 C217.41 65.04, 247.64 33.34, 273.9 2.25 M193.86 94.32 C210.3 73.01, 228.66 51.53, 273.9 2.25 M199.5 93.93 C229.34 62.57, 251.21 30.5, 279.54 1.85 M199.5 93.93 C222.89 67, 242.58 44.07, 279.54 1.85 M204.49 94.29 C228.76 66.69, 260.29 34.56, 284.53 2.21 M204.49 94.29 C227.73 66.68, 253.38 37.87, 284.53 2.21 M210.13 93.89 C234.92 66.47, 260.83 44.93, 290.17 1.82 M210.13 93.89 C240.06 60.62, 272.28 23.6, 290.17 1.82 M215.12 94.25 C238.08 66.82, 256 46.89, 295.16 2.18 M215.12 94.25 C229.24 75.23, 248.41 54.77, 295.16 2.18 M220.76 93.86 C249.51 66.65, 270.35 29.03, 300.8 1.78 M220.76 93.86 C249.51 59.16, 279.38 26.52, 300.8 1.78 M225.75 94.22 C245.29 76.15, 263.82 51.29, 305.79 2.14 M225.75 94.22 C246.03 71.1, 264.98 46.64, 305.79 2.14 M231.39 93.82 C256.25 64.44, 280.05 33.45, 311.43 1.75 M231.39 93.82 C258.54 63.33, 286.67 31.89, 311.43 1.75 M236.38 94.18 C259.45 68.89, 275.99 47.28, 316.42 2.11 M236.38 94.18 C258.27 71.9, 276.18 52.53, 316.42 2.11 M242.02 93.79 C275.54 59.62, 301.62 24.97, 322.06 1.71 M242.02 93.79 C266.92 66.59, 290.26 40.77, 322.06 1.71 M247.01 94.15 C268.22 63.95, 297.51 44.93, 327.05 2.07 M247.01 94.15 C272 66.74, 293.81 41.61, 327.05 2.07 M252.65 93.75 C271.78 74.94, 288.81 49.79, 332.69 1.68 M252.65 93.75 C283.39 59.15, 312.12 28.58, 332.69 1.68 M257.64 94.11 C283.75 70.95, 303.98 44.08, 337.68 2.04 M257.64 94.11 C280.69 67.51, 302.02 44.9, 337.68 2.04 M263.28 93.72 C294.02 58.74, 326.24 22.11, 343.32 1.64 M263.28 93.72 C285.47 69.55, 303.84 48.8, 343.32 1.64 M268.27 94.08 C296.83 64.97, 323.76 37.48, 348.31 2 M268.27 94.08 C299.99 60, 327.95 21.92, 348.31 2 M273.26 94.44 C295.89 62.33, 329.13 30.82, 353.3 2.36 M273.26 94.44 C291.02 72.61, 310.25 53.95, 353.3 2.36 M278.9 94.04 C295.01 71.81, 312.12 54.08, 358.94 1.97 M278.9 94.04 C301.26 67.98, 323.4 39.68, 358.94 1.97 M283.89 94.4 C308.36 67.55, 328.26 48.17, 363.93 2.33 M283.89 94.4 C312.62 59.22, 343.79 25.88, 363.93 2.33 M289.53 94.01 C315.87 63.53, 348.47 27.7, 369.57 1.93 M289.53 94.01 C313.1 67.51, 334.23 45.66, 369.57 1.93 M294.52 94.37 C310.66 76.65, 324.73 54.47, 374.56 2.3 M294.52 94.37 C317.85 65.73, 340.74 40.78, 374.56 2.3 M300.16 93.97 C318.06 65.34, 347.4 42.02, 380.2 1.9 M300.16 93.97 C318.09 73.42, 333.18 53.18, 380.2 1.9 M305.15 94.34 C337.72 58.38, 365.51 28.57, 385.19 2.26 M305.15 94.34 C335.77 61.19, 367.75 24.75, 385.19 2.26 M310.79 93.94 C330.59 65.49, 352.01 43.97, 390.83 1.87 M310.79 93.94 C329.77 69.65, 348.83 49.72, 390.83 1.87 M315.78 94.3 C346.35 60.43, 377.52 20.78, 395.82 2.23 M315.78 94.3 C332.68 73.85, 349.59 56.76, 395.82 2.23 M321.42 93.91 C351.53 58.14, 376.58 27.88, 401.46 1.83 M321.42 93.91 C344.33 64.51, 373.25 35.75, 401.46 1.83 M326.41 94.27 C348.42 64.97, 372.92 45.48, 406.45 2.19 M326.41 94.27 C354.76 58.23, 387.8 24.86, 406.45 2.19 M332.05 93.87 C364.97 58.97, 391.53 25.83, 412.09 1.8 M332.05 93.87 C361.52 55.42, 395.01 20.33, 412.09 1.8 M337.04 94.23 C362.01 72.24, 384.18 46, 417.08 2.16 M337.04 94.23 C362.38 66.48, 386.94 34.8, 417.08 2.16 M342.68 93.84 C372.11 64.72, 402.51 29.24, 422.72 1.76 M342.68 93.84 C366.49 69.78, 388.86 43.12, 422.72 1.76 M347.67 94.2 C380.91 59.38, 409.6 19.43, 427.71 2.12 M347.67 94.2 C379.79 59.41, 408.36 22.23, 427.71 2.12 M353.31 93.8 C376.14 64.84, 403.28 38.49, 433.35 1.73 M353.31 93.8 C385.58 57.66, 415.7 22.67, 433.35 1.73 M358.3 94.16 C379.79 68.86, 402.5 42.26, 438.34 2.09 M358.3 94.16 C376.48 71.43, 395.52 51.63, 438.34 2.09 M363.29 94.52 C388.71 59.41, 422.21 26.81, 443.33 2.45 M363.29 94.52 C393.16 59.87, 421.31 24.2, 443.33 2.45 M368.93 94.13 C401.64 56.52, 430.88 24.87, 449.62 1.3 M368.93 94.13 C394.98 66.16, 418 37.72, 449.62 1.3 M373.92 94.49 C393.41 67.78, 413.7 47.84, 453.96 2.41 M373.92 94.49 C393.83 70.5, 414.55 44.75, 453.96 2.41 M379.56 94.09 C405.61 72.24, 427.67 40.17, 458.29 3.53 M379.56 94.09 C413.4 59.2, 444.5 23.94, 458.29 3.53 M384.55 94.45 C412.13 56.86, 443.08 27.52, 460.65 6.91 M384.55 94.45 C413.97 59.96, 445.41 27.37, 460.65 6.91 M390.19 94.06 C407.81 72.53, 422.13 53.46, 463.01 10.29 M390.19 94.06 C412.08 68.73, 435.82 42.03, 463.01 10.29 M395.18 94.42 C418.99 64.99, 444.87 33.81, 466.03 12.91 M395.18 94.42 C410.46 73.86, 427.28 54.7, 466.03 12.91 M400.82 94.02 C424.66 68.7, 441.07 49.59, 465.77 19.31 M400.82 94.02 C416.95 78.88, 429.35 62.52, 465.77 19.31 M405.81 94.38 C431.7 68.09, 452.1 41.42, 466.16 24.95 M405.81 94.38 C428.06 68.22, 446.74 42.74, 466.16 24.95 M411.45 93.99 C423.48 79.91, 438.64 55.35, 465.9 31.35 M411.45 93.99 C424.76 79.07, 437.5 65.38, 465.9 31.35 M416.44 94.35 C425.17 83.2, 441.17 67.57, 466.3 36.99 M416.44 94.35 C432.32 79.43, 444.58 60.85, 466.3 36.99 M422.08 93.96 C437.54 80.73, 448.39 68.68, 466.04 43.39 M422.08 93.96 C430.99 81.11, 444.04 67.14, 466.04 43.39 M427.07 94.32 C435.67 77.16, 452.78 64.55, 466.43 49.03 M427.07 94.32 C436.2 85.4, 444.05 74.29, 466.43 49.03 M432.71 93.92 C444.13 81.56, 444.92 79, 466.17 55.43 M432.71 93.92 C447.53 81.21, 459.7 64.42, 466.17 55.43 M437.7 94.28 C446.82 86.01, 454.03 79.56, 466.56 61.07 M437.7 94.28 C447.4 80.58, 456.66 68.74, 466.56 61.07 M444 93.13 C453.72 90.31, 454.57 78.58, 466.96 66.72 M444 93.13 C451.12 84.86, 455.72 77.8, 466.96 66.72 M450.95 91.23 C454.71 81.5, 462.01 78.93, 466.7 73.11 M450.95 91.23 C456.37 83.11, 461.55 79.41, 466.7 73.11 M457.25 90.08 C459.63 88.03, 467.89 83.38, 468.4 77.25 M457.25 90.08 C461.51 85.44, 466.48 79.79, 468.4 77.25" stroke="#e9ecef" stroke-width="0.5" fill="none"></path><path d="M23.22 0 M23.22 0 C149.35 -1.72, 272.38 -2.68, 443.75 0 M23.22 0 C110.1 -3.28, 199.27 -2.73, 443.75 0 M443.75 0 C456.61 2.79, 470.45 5.11, 466.97 23.22 M443.75 0 C459.1 -1.64, 470.95 3.72, 466.97 23.22 M466.97 23.22 C463.49 41.51, 465.51 53.24, 466.97 69.65 M466.97 23.22 C466.22 33.76, 468.53 44.27, 466.97 69.65 M466.97 69.65 C467.77 88.29, 462.05 89.63, 443.75 92.86 M466.97 69.65 C470.17 88.7, 458.31 96.11, 443.75 92.86 M443.75 92.86 C288.2 93.94, 132.33 91.99, 23.22 92.86 M443.75 92.86 C297.99 94.38, 154.28 95.24, 23.22 92.86 M23.22 92.86 C4.1 91.56, -0.92 87.19, 0 69.65 M23.22 92.86 C10.12 94.72, 2.79 82.41, 0 69.65 M0 69.65 C0.25 58.74, 0.06 42.61, 0 23.22 M0 69.65 C-1.66 57.25, 0.16 42.81, 0 23.22 M0 23.22 C2.62 10.49, 4.6 -0.78, 23.22 0 M0 23.22 C2.41 4.35, 10.95 1.48, 23.22 0" stroke="#1971c2" stroke-width="1" fill="none"></path></g><g transform="translate(485.3529826821753 582.6718014037544) rotate(0 87.17396545410153 22.5)"><text x="87.17396545410156" y="0" font-family="Virgil, Segoe UI Emoji" font-size="36px" fill="#1971c2" text-anchor="middle" style="white-space: pre;" direction="ltr" dominant-baseline="text-before-edge">population</text></g><g stroke-linecap="round" transform="translate(10 752.5634616738148) rotate(0 276.5 67.5)"><path d="M7.86 8.16 C7.86 8.16, 7.86 8.16, 7.86 8.16 M7.86 8.16 C7.86 8.16, 7.86 8.16, 7.86 8.16 M3.66 19.09 C7.73 13.12, 10.36 7.65, 18.1 2.48 M3.66 19.09 C7.27 11.83, 15.45 7.76, 18.1 2.48 M2.75 26.24 C11.51 21.6, 15.79 13.77, 24.4 1.33 M2.75 26.24 C9.3 20, 14.03 12.85, 24.4 1.33 M1.83 33.39 C6.76 28.97, 18.04 23.27, 30.7 0.18 M1.83 33.39 C15.48 20.8, 26.25 6.63, 30.7 0.18 M1.57 39.79 C9.98 26.44, 25.15 10, 34.37 2.05 M1.57 39.79 C14.33 27.83, 24.97 12.8, 34.37 2.05 M1.96 45.43 C18.21 26.25, 24.68 17.8, 39.36 2.41 M1.96 45.43 C11.6 34.23, 22.62 19.51, 39.36 2.41 M1.7 51.83 C18.6 36.97, 29.22 16.24, 45 2.02 M1.7 51.83 C19.61 31.72, 35.67 11.78, 45 2.02 M1.44 58.23 C10.39 44.49, 17.82 37.3, 49.99 2.38 M1.44 58.23 C12.93 46.36, 23.57 29.83, 49.99 2.38 M1.83 63.87 C13.82 46.73, 29.28 24.76, 55.63 1.98 M1.83 63.87 C12.28 50.86, 25.72 38.18, 55.63 1.98 M1.57 70.27 C23.87 43.44, 45.91 21.57, 60.62 2.34 M1.57 70.27 C14.32 55.05, 28.64 39.27, 60.62 2.34 M1.97 75.91 C14.34 61.99, 37.84 39.11, 66.26 1.95 M1.97 75.91 C20.87 52.44, 42.16 29.35, 66.26 1.95 M1.71 82.31 C25.65 57.08, 43.26 32.24, 71.25 2.31 M1.71 82.31 C16.55 63.72, 35.44 42.43, 71.25 2.31 M1.44 88.71 C20.64 68.86, 36.2 48.17, 76.89 1.91 M1.44 88.71 C17.45 68.15, 37.38 52.38, 76.89 1.91 M1.84 94.35 C29.18 65.06, 54.86 31.2, 81.88 2.27 M1.84 94.35 C20.86 69.66, 43.39 46.93, 81.88 2.27 M1.58 100.75 C19.29 82.75, 38.7 62.98, 87.52 1.88 M1.58 100.75 C34.52 62.08, 63.31 28.19, 87.52 1.88 M2.63 105.64 C33.61 72.92, 65.46 30.01, 92.51 2.24 M2.63 105.64 C26.93 77.76, 54.3 47.64, 92.51 2.24 M3.68 110.52 C32.49 74.71, 65.45 38.27, 98.15 1.85 M3.68 110.52 C42.67 65.74, 79.28 23.53, 98.15 1.85 M2.76 117.68 C26.61 87.83, 57.61 58.45, 103.14 2.21 M2.76 117.68 C29.22 87.13, 57.96 57.02, 103.14 2.21 M5.12 121.06 C45.62 81.21, 80.28 34.69, 108.78 1.81 M5.12 121.06 C23.68 97.02, 47.05 70.77, 108.78 1.81 M7.49 124.43 C37.09 88.64, 62.58 57.46, 113.77 2.17 M7.49 124.43 C32.49 92, 62.01 58.71, 113.77 2.17 M10.51 127.06 C47.46 86.58, 89.83 33.5, 119.41 1.78 M10.51 127.06 C47.93 80.2, 86.17 36.62, 119.41 1.78 M12.87 130.44 C43.08 93.33, 79.15 56.93, 124.4 2.14 M12.87 130.44 C39.83 103.74, 63.14 75.08, 124.4 2.14 M16.54 132.31 C41.54 96.93, 74.42 65.09, 129.39 2.5 M16.54 132.31 C41.7 100.16, 71.78 70.91, 129.39 2.5 M20.87 133.42 C67.95 82.15, 109.21 24.81, 135.03 2.1 M20.87 133.42 C61.98 86.11, 105.62 41, 135.03 2.1 M25.2 134.54 C52.29 96.95, 84.74 67.65, 140.02 2.46 M25.2 134.54 C66.66 91.2, 108.08 41.76, 140.02 2.46 M30.19 134.9 C64.69 92.57, 109.77 46.31, 145.66 2.07 M30.19 134.9 C55 106.63, 83.41 73.56, 145.66 2.07 M35.83 134.5 C57.47 106.17, 81.14 80.08, 150.65 2.43 M35.83 134.5 C75.69 88.11, 119.05 38.41, 150.65 2.43 M40.82 134.86 C73.16 102.95, 100.83 69.07, 156.29 2.03 M40.82 134.86 C78.1 93.07, 111.22 54.01, 156.29 2.03 M45.81 135.22 C84.43 97.2, 116.81 53.6, 161.28 2.39 M45.81 135.22 C79.63 99.15, 110.3 66.76, 161.28 2.39 M51.45 134.83 C90.05 91.07, 122.61 55.31, 166.92 2 M51.45 134.83 C90.63 88.74, 127 47.15, 166.92 2 M56.44 135.19 C90.97 95.74, 129.01 53.48, 171.91 2.36 M56.44 135.19 C84.39 101.74, 113.6 71.4, 171.91 2.36 M62.08 134.79 C98.95 92.83, 134.45 52.65, 177.55 1.96 M62.08 134.79 C97.62 92.95, 135.97 51.9, 177.55 1.96 M67.07 135.15 C111.94 84.47, 159.82 36.56, 182.54 2.32 M67.07 135.15 C111.37 82.04, 154.59 32.93, 182.54 2.32 M72.71 134.76 C100.98 99.3, 134.82 61.57, 188.18 1.93 M72.71 134.76 C103.01 97.51, 133.67 61.11, 188.18 1.93 M77.7 135.12 C101.94 102.13, 133.46 67.95, 193.17 2.29 M77.7 135.12 C123.9 83.04, 167.61 32.94, 193.17 2.29 M83.34 134.72 C113.6 105.34, 133.45 75.84, 198.81 1.9 M83.34 134.72 C107.19 107.64, 131.04 81.16, 198.81 1.9 M88.33 135.08 C127.15 86.16, 175.24 41.32, 203.8 2.26 M88.33 135.08 C116.35 105.25, 145.81 73.52, 203.8 2.26 M93.97 134.69 C124.74 95.5, 157 63.19, 209.44 1.86 M93.97 134.69 C131.26 95.08, 166.22 55.88, 209.44 1.86 M98.96 135.05 C127.62 102.32, 153.58 70.41, 214.43 2.22 M98.96 135.05 C135.61 91.03, 174.26 48.25, 214.43 2.22 M104.6 134.66 C131.4 98.43, 164.9 59.71, 219.41 2.58 M104.6 134.66 C128.71 106.35, 151.28 79.84, 219.41 2.58 M109.59 135.02 C140.78 98.66, 170.93 62.59, 225.06 2.19 M109.59 135.02 C149.4 82.94, 191.23 34.7, 225.06 2.19 M115.23 134.62 C159.2 88.41, 191.22 44.31, 230.04 2.55 M115.23 134.62 C148.62 96.88, 182.03 55.29, 230.04 2.55 M120.22 134.98 C158.8 97.52, 191.87 54.09, 235.69 2.15 M120.22 134.98 C149.59 100.55, 175.38 67.66, 235.69 2.15 M125.21 135.34 C147.23 108.74, 172.12 75.71, 240.67 2.51 M125.21 135.34 C169.29 85.54, 213.13 31.84, 240.67 2.51 M130.85 134.95 C160.14 99.32, 195.56 52.82, 246.32 2.12 M130.85 134.95 C172.84 86.42, 213.07 37.29, 246.32 2.12 M135.84 135.31 C160.84 95.41, 197.1 66.61, 251.3 2.48 M135.84 135.31 C174.53 94.12, 207.51 52.15, 251.3 2.48 M141.48 134.91 C171.27 102.45, 201.85 71.56, 256.95 2.08 M141.48 134.91 C175.05 92.91, 210.77 52.62, 256.95 2.08 M146.47 135.27 C181.9 97.68, 206.58 63.4, 261.93 2.44 M146.47 135.27 C173.58 99.45, 203.33 68.19, 261.93 2.44 M152.11 134.88 C178.35 103.06, 210.55 74.46, 267.58 2.05 M152.11 134.88 C197.37 81.43, 246.12 29.52, 267.58 2.05 M157.1 135.24 C186.32 109.31, 212.36 78.9, 272.56 2.41 M157.1 135.24 C187.86 103.63, 215.06 69.46, 272.56 2.41 M162.74 134.84 C187.12 102.17, 210.66 71.97, 278.21 2.01 M162.74 134.84 C199.36 93.27, 239.12 46.25, 278.21 2.01 M167.73 135.2 C208 86.18, 254.27 34.99, 283.19 2.37 M167.73 135.2 C202.03 93.56, 239.35 50.36, 283.19 2.37 M173.37 134.81 C197.61 104.41, 229.69 71.77, 288.84 1.98 M173.37 134.81 C206.6 92.07, 246.71 47.78, 288.84 1.98 M178.36 135.17 C219.41 83.41, 263.89 32.77, 293.82 2.34 M178.36 135.17 C207.14 101.03, 235.55 70.23, 293.82 2.34 M184 134.77 C228.3 88.33, 274.11 38.63, 298.81 2.7 M184 134.77 C225.08 85.73, 268.07 41, 298.81 2.7 M188.99 135.13 C220.86 94.19, 249.76 63.79, 304.45 2.3 M188.99 135.13 C224.95 91.01, 258.86 52.57, 304.45 2.3 M194.63 134.74 C215.61 102.28, 244.12 71.45, 309.44 2.66 M194.63 134.74 C237.02 82.81, 280.95 36.68, 309.44 2.66 M199.62 135.1 C225.78 100.17, 256.04 76.28, 315.08 2.27 M199.62 135.1 C235.25 97.18, 267.76 60.2, 315.08 2.27 M205.26 134.7 C224.52 105.59, 252.52 73.93, 320.07 2.63 M205.26 134.7 C235.65 105.9, 262.68 71.16, 320.07 2.63 M210.25 135.06 C245.28 94.77, 279.47 51.81, 325.71 2.24 M210.25 135.06 C232.13 108.97, 257.03 81.22, 325.71 2.24 M215.23 135.42 C253.14 89.24, 288.89 53.94, 330.7 2.6 M215.23 135.42 C236.69 106.01, 261.05 79.97, 330.7 2.6 M220.88 135.03 C254.73 98.27, 289.38 60.16, 336.34 2.2 M220.88 135.03 C255.56 91.57, 289.86 54.41, 336.34 2.2 M225.86 135.39 C256.66 99.07, 285 68.24, 341.33 2.56 M225.86 135.39 C256.86 100.65, 286.69 62.76, 341.33 2.56 M231.51 135 C270.65 96.35, 305.35 48.93, 346.97 2.17 M231.51 135 C251.49 110.66, 277.1 82.83, 346.97 2.17 M236.49 135.36 C277.18 89.48, 326.38 38.17, 351.96 2.53 M236.49 135.36 C280.13 87.24, 319.52 42.7, 351.96 2.53 M242.14 134.96 C265.9 106.17, 295.59 74.54, 357.6 2.13 M242.14 134.96 C279.73 93.51, 315.22 50.38, 357.6 2.13 M247.12 135.32 C288.07 86.1, 329.12 43.02, 362.59 2.49 M247.12 135.32 C290.68 86.17, 332.68 40.93, 362.59 2.49 M252.77 134.93 C290.88 79.1, 338.07 29.48, 368.23 2.1 M252.77 134.93 C290.91 94.44, 326.1 54.35, 368.23 2.1 M257.75 135.29 C288.06 98.4, 318.01 64.97, 373.22 2.46 M257.75 135.29 C299.23 95.21, 334.59 49.44, 373.22 2.46 M263.4 134.89 C299.01 94.92, 328.8 59.73, 378.86 2.06 M263.4 134.89 C307.86 86.43, 348.5 36.46, 378.86 2.06 M268.38 135.25 C312.42 88.78, 346.19 43.45, 383.85 2.42 M268.38 135.25 C296.2 102.42, 326.56 69.35, 383.85 2.42 M274.03 134.86 C308.66 89.52, 346.89 40.31, 388.84 2.78 M274.03 134.86 C318.05 86.76, 362.35 36.3, 388.84 2.78 M279.01 135.22 C298.27 106.46, 320.52 80.56, 394.48 2.39 M279.01 135.22 C311.89 98.46, 338.47 65.87, 394.48 2.39 M284.66 134.82 C312.9 96.41, 353 57.57, 399.47 2.75 M284.66 134.82 C325.1 91.05, 359 49.76, 399.47 2.75 M289.64 135.18 C320.51 103.74, 346.72 74.13, 405.11 2.35 M289.64 135.18 C322.59 98.89, 356.32 58.46, 405.11 2.35 M295.29 134.79 C321.33 104.93, 340.68 82.93, 410.1 2.71 M295.29 134.79 C325.69 101.13, 357.01 68.04, 410.1 2.71 M300.28 135.15 C323.96 111.72, 344.32 76.65, 415.74 2.32 M300.28 135.15 C340.43 87.99, 378.64 44.8, 415.74 2.32 M305.26 135.51 C337.62 101.57, 360.35 68.83, 420.73 2.68 M305.26 135.51 C331.03 106.5, 357.29 74.95, 420.73 2.68 M310.91 135.11 C342.31 100.52, 368.61 65.38, 426.37 2.29 M310.91 135.11 C340.86 100.16, 369.4 62.09, 426.37 2.29 M315.89 135.47 C357.73 86.14, 394.28 37.47, 431.36 2.65 M315.89 135.47 C347.75 96.18, 378.68 62.49, 431.36 2.65 M321.54 135.08 C349.4 95.76, 381.09 63.8, 437 2.25 M321.54 135.08 C361.37 86.66, 405.51 36.72, 437 2.25 M326.52 135.44 C366.02 90.47, 404.9 53.47, 441.99 2.61 M326.52 135.44 C346.16 105.88, 372.49 80.79, 441.99 2.61 M332.17 135.05 C376.83 87.4, 408.81 40.09, 447.63 2.22 M332.17 135.05 C377.89 84.13, 422.19 30.98, 447.63 2.22 M337.15 135.41 C372.55 89.34, 413.25 44.93, 452.62 2.58 M337.15 135.41 C371.64 91.89, 406.07 51.8, 452.62 2.58 M342.8 135.01 C380.35 92.29, 417.05 52.02, 458.26 2.18 M342.8 135.01 C385.33 88.63, 425.53 41.51, 458.26 2.18 M347.78 135.37 C378.3 98.21, 407.69 58.04, 463.25 2.54 M347.78 135.37 C394.36 82.01, 436.79 31.5, 463.25 2.54 M353.43 134.98 C381.45 104.24, 404.64 74.65, 468.89 2.15 M353.43 134.98 C387.67 95.15, 423.8 54.68, 468.89 2.15 M358.41 135.34 C396.13 94.59, 429.5 45.43, 473.88 2.51 M358.41 135.34 C396.92 92.79, 433.4 52.81, 473.88 2.51 M364.06 134.94 C401.1 95.67, 429.94 55.49, 478.87 2.87 M364.06 134.94 C403.18 88.28, 448.08 40.26, 478.87 2.87 M369.04 135.3 C396.06 103.54, 422.34 79.2, 484.51 2.47 M369.04 135.3 C407.06 90.91, 443.37 47.08, 484.51 2.47 M374.69 134.91 C406.7 102.95, 436.82 65.32, 489.5 2.83 M374.69 134.91 C405.7 99.27, 436.8 61.65, 489.5 2.83 M379.67 135.27 C404.42 107.44, 426.39 82.63, 495.14 2.44 M379.67 135.27 C410.75 99.43, 441.17 63.29, 495.14 2.44 M385.32 134.87 C425.06 97.79, 455.34 54.04, 500.13 2.8 M385.32 134.87 C417.05 102.33, 446.38 66.69, 500.13 2.8 M390.3 135.23 C419.74 101.66, 446.35 69.34, 505.77 2.4 M390.3 135.23 C435.09 82.91, 480.01 28.28, 505.77 2.4 M395.29 135.59 C430.51 99.39, 465.09 51.94, 510.76 2.76 M395.29 135.59 C438.16 86.91, 479 35.12, 510.76 2.76 M400.93 135.2 C430.28 102.58, 463.55 63.52, 516.4 2.37 M400.93 135.2 C443.68 87.63, 487.28 38.4, 516.4 2.37 M405.92 135.56 C433.72 103.94, 454.58 79.22, 521.39 2.73 M405.92 135.56 C443.73 93.73, 484.61 45.23, 521.39 2.73 M411.56 135.16 C443.09 98.7, 468.92 69.31, 528.34 0.83 M411.56 135.16 C437.56 106.92, 461.64 77.05, 528.34 0.83 M416.55 135.52 C442.57 101.84, 473.18 63.13, 532.67 1.94 M416.55 135.52 C455.82 96.33, 492.6 52.97, 532.67 1.94 M422.19 135.13 C462.74 93.13, 507.19 38.5, 536.35 3.81 M422.19 135.13 C445.19 105.24, 469.87 77.97, 536.35 3.81 M427.18 135.49 C458.23 96.86, 488.81 59.53, 540.02 5.68 M427.18 135.49 C465.38 95.31, 501.01 51.6, 540.02 5.68 M432.82 135.1 C456.65 102.77, 485.78 69.5, 543.7 7.55 M432.82 135.1 C456.26 108.43, 479.04 84.68, 543.7 7.55 M437.81 135.46 C480.27 86.9, 517.78 48.3, 547.37 9.42 M437.81 135.46 C467.11 104.06, 493.01 72.69, 547.37 9.42 M443.45 135.06 C481.43 97.58, 517.84 52.3, 549.08 13.55 M443.45 135.06 C471.94 104.62, 500.15 74.42, 549.08 13.55 M448.44 135.42 C483.24 90.21, 522.37 52.25, 550.79 17.69 M448.44 135.42 C485.19 91.57, 526.77 46.05, 550.79 17.69 M454.08 135.03 C484.22 99.07, 516.53 71.01, 552.49 21.82 M454.08 135.03 C473.98 112.03, 495.36 87.91, 552.49 21.82 M459.07 135.39 C494.98 95.65, 529.98 52.16, 554.2 25.95 M459.07 135.39 C490.29 100.3, 520.75 65.62, 554.2 25.95 M464.71 134.99 C483.81 111.02, 499.22 97.09, 553.94 32.35 M464.71 134.99 C497.79 99.22, 527.07 62.79, 553.94 32.35 M469.7 135.35 C492.77 108.33, 515.12 88.58, 554.33 37.99 M469.7 135.35 C490.85 109, 516.74 81.21, 554.33 37.99 M475.34 134.96 C506.47 105.83, 533.01 65.3, 554.07 44.39 M475.34 134.96 C501.85 104.54, 527.77 76.79, 554.07 44.39 M480.33 135.32 C504.14 108.97, 530.33 80.27, 554.47 50.04 M480.33 135.32 C504.31 108.01, 528.83 82.14, 554.47 50.04 M485.32 135.68 C513.07 108.56, 531.41 85.8, 554.2 56.43 M485.32 135.68 C499.04 119.09, 515.43 102.36, 554.2 56.43 M490.96 135.28 C510.42 115.59, 529.43 92.56, 553.94 62.83 M490.96 135.28 C515.2 106.19, 541.28 78.68, 553.94 62.83 M495.95 135.64 C514.85 115.34, 522.69 102.68, 554.34 68.47 M495.95 135.64 C513.51 117.5, 528.66 101.47, 554.34 68.47 M501.59 135.25 C511.75 125.88, 520.58 105.28, 554.08 74.87 M501.59 135.25 C513.31 120.09, 528.95 104.62, 554.08 74.87 M506.58 135.61 C523.98 122.61, 534.02 103.54, 554.47 80.51 M506.58 135.61 C523.46 115.98, 538.96 98.76, 554.47 80.51 M512.22 135.21 C520.81 120.9, 539.55 106.45, 554.21 86.91 M512.22 135.21 C527.37 114.99, 541.77 100.41, 554.21 86.91 M517.21 135.57 C528.22 119.26, 539 108.51, 553.95 93.31 M517.21 135.57 C528.62 123.24, 542.64 107.74, 553.95 93.31 M522.19 135.93 C534.48 123.99, 544.32 111.34, 554.34 98.95 M522.19 135.93 C532.34 123.42, 545.13 107.19, 554.34 98.95 M528.49 134.78 C535.66 125.52, 541.84 116.9, 554.08 105.35 M528.49 134.78 C536.68 126.79, 542.8 115.84, 554.08 105.35 M535.45 132.88 C540.15 123.35, 545.36 116.85, 553.82 111.75 M535.45 132.88 C540.77 128.51, 546.05 121.68, 553.82 111.75" stroke="#e9ecef" stroke-width="0.5" fill="none"></path><path d="M32 0 M32 0 C140.13 1.78, 250.21 -0.25, 521 0 M32 0 C172.47 1.25, 314.88 2.09, 521 0 M521 0 C540.08 -3.27, 556.92 9.01, 553 32 M521 0 C543.56 -3.49, 555.8 12.15, 553 32 M553 32 C556.09 47.65, 553.55 60.75, 553 103 M553 32 C550.78 56.18, 551.11 75.06, 553 103 M553 103 C554.79 127.93, 545.61 132.8, 521 135 M553 103 C551.91 123.08, 544.94 131.02, 521 135 M521 135 C416.21 134.64, 310.55 132.68, 32 135 M521 135 C380.3 131.31, 240.11 131.37, 32 135 M32 135 C12.04 134.19, 1.8 122.84, 0 103 M32 135 C6.42 136.27, -1.08 127.08, 0 103 M0 103 C1.61 73.93, 3.76 56.59, 0 32 M0 103 C-1.09 77.57, 2.33 54.78, 0 32 M0 32 C3.66 12.33, 12.31 1.93, 32 0 M0 32 C-1.9 12.92, 8.44 -0.22, 32 0" stroke="#f08c00" stroke-width="1" fill="none"></path></g><g transform="translate(124.050048828125 775.0634616738148) rotate(0 162.449951171875 45)"><text x="162.449951171875" y="0" font-family="Virgil, Segoe UI Emoji" font-size="36px" fill="#f08c00" text-anchor="middle" style="white-space: pre;" direction="ltr" dominant-baseline="text-before-edge">name = 'elon musk'</text><text x="162.449951171875" y="45" font-family="Virgil, Segoe UI Emoji" font-size="36px" fill="#f08c00" text-anchor="middle" style="white-space: pre;" direction="ltr" dominant-baseline="text-before-edge">population = 0</text></g><g stroke-linecap="round" transform="translate(673.9092153142732 744.8603019432667) rotate(0 276.50000000000006 69)"><path d="M7.86 8.16 C7.86 8.16, 7.86 8.16, 7.86 8.16 M7.86 8.16 C7.86 8.16, 7.86 8.16, 7.86 8.16 M3.66 19.09 C6.47 11.09, 8.4 12.7, 18.1 2.48 M3.66 19.09 C9.28 13.03, 15.44 6.16, 18.1 2.48 M2.75 26.24 C11.09 18.64, 13.27 16.89, 24.4 1.33 M2.75 26.24 C10.8 18.46, 18.43 11.43, 24.4 1.33 M1.83 33.39 C16.28 22.75, 21.35 5.12, 30.7 0.18 M1.83 33.39 C9.53 21.79, 22.39 10.36, 30.7 0.18 M1.57 39.79 C7.11 29.24, 16.3 25.6, 34.37 2.05 M1.57 39.79 C8.16 30.32, 15.21 23.2, 34.37 2.05 M1.96 45.43 C12.7 34.9, 20.31 20.5, 39.36 2.41 M1.96 45.43 C13.49 32.77, 22.76 23.86, 39.36 2.41 M1.7 51.83 C14.79 33.18, 33.45 16.75, 45 2.02 M1.7 51.83 C16.01 35.27, 33.49 15.99, 45 2.02 M1.44 58.23 C16.43 39.74, 29.1 30.09, 49.99 2.38 M1.44 58.23 C11.3 47.3, 20.06 34.22, 49.99 2.38 M1.83 63.87 C17.57 43.28, 33.23 28.02, 55.63 1.98 M1.83 63.87 C14.43 45.09, 32.96 28.99, 55.63 1.98 M1.57 70.27 C17.29 54.96, 26.01 39.18, 60.62 2.34 M1.57 70.27 C24.78 44.48, 45.56 21.65, 60.62 2.34 M1.97 75.91 C24.83 51.03, 52.18 20.27, 66.26 1.95 M1.97 75.91 C18.82 53.49, 36.25 35.01, 66.26 1.95 M1.71 82.31 C16.91 59.72, 33.36 44.78, 71.25 2.31 M1.71 82.31 C27.7 52.31, 54.67 19.39, 71.25 2.31 M1.44 88.71 C17.76 67.76, 33.03 54.94, 76.89 1.91 M1.44 88.71 C29.71 56.14, 55.08 26.23, 76.89 1.91 M1.84 94.35 C23.19 63.85, 55.56 35.64, 81.88 2.27 M1.84 94.35 C23.39 66.53, 46.58 44.21, 81.88 2.27 M1.58 100.75 C30.18 61.2, 69.13 25.66, 87.52 1.88 M1.58 100.75 C35.07 64.51, 64.46 29.4, 87.52 1.88 M1.32 107.14 C34.07 61.8, 73.79 22.95, 92.51 2.24 M1.32 107.14 C28.59 80.27, 53.83 50.87, 92.51 2.24 M2.37 112.03 C32.77 79.73, 61.48 39.85, 98.15 1.85 M2.37 112.03 C36.9 74.51, 71.96 33.92, 98.15 1.85 M2.76 117.68 C32.6 88.85, 60.02 55.44, 103.14 2.21 M2.76 117.68 C43.31 73.62, 81.73 25.96, 103.14 2.21 M4.47 121.81 C47.16 76.98, 82.44 27.75, 108.78 1.81 M4.47 121.81 C34.5 84.44, 67.02 49.47, 108.78 1.81 M6.17 125.94 C49.29 77.56, 88.84 31.41, 113.77 2.17 M6.17 125.94 C36.74 90.52, 67.97 54.35, 113.77 2.17 M8.54 129.32 C33.69 96.88, 60.35 70.42, 119.41 1.78 M8.54 129.32 C47.01 79.77, 90.99 32.15, 119.41 1.78 M10.9 132.7 C54.05 83.47, 92.87 32.24, 124.4 2.14 M10.9 132.7 C54.73 83.42, 96.32 36.57, 124.4 2.14 M14.57 134.57 C52.25 95.61, 84.18 54.95, 129.39 2.5 M14.57 134.57 C43.44 99.48, 71.87 68.48, 129.39 2.5 M18.91 135.69 C47.62 100.86, 77.11 63.13, 135.03 2.1 M18.91 135.69 C54.69 100.28, 87.23 59.49, 135.03 2.1 M22.58 137.56 C73.65 86.14, 120.12 33.69, 140.02 2.46 M22.58 137.56 C66.5 81.21, 113.39 30.4, 140.02 2.46 M26.26 139.42 C71.56 85.19, 121.4 35.02, 145.66 2.07 M26.26 139.42 C55.36 107.29, 82.27 75.04, 145.66 2.07 M31.9 139.03 C67.24 97.67, 106.25 54.03, 150.65 2.43 M31.9 139.03 C75.02 91.01, 118.03 40.84, 150.65 2.43 M36.89 139.39 C62.28 104.62, 90.59 72.45, 156.29 2.03 M36.89 139.39 C75.88 95.83, 110.39 56.02, 156.29 2.03 M42.53 139 C72.27 111.27, 94.8 81.17, 161.28 2.39 M42.53 139 C88.25 89.59, 130.68 39.18, 161.28 2.39 M47.52 139.36 C91.59 87.58, 128.47 37.17, 166.92 2 M47.52 139.36 C79.15 103.69, 113.13 61.04, 166.92 2 M53.16 138.96 C81.97 106.77, 109.63 76.89, 171.91 2.36 M53.16 138.96 C78.98 109.67, 108.59 76.99, 171.91 2.36 M58.15 139.32 C95.7 103.09, 125.76 59.57, 177.55 1.96 M58.15 139.32 C92.59 102.48, 122.69 68.08, 177.55 1.96 M63.79 138.93 C88.54 104.2, 122.22 67.54, 182.54 2.32 M63.79 138.93 C96.49 95.9, 133.53 56.83, 182.54 2.32 M68.78 139.29 C95.54 110.87, 120.28 78.25, 188.18 1.93 M68.78 139.29 C97.81 105.76, 120.66 78.65, 188.18 1.93 M74.42 138.89 C124.09 91.26, 168.48 34.62, 193.17 2.29 M74.42 138.89 C107.84 104.09, 138.98 69.19, 193.17 2.29 M79.41 139.25 C120.83 86.21, 161.5 37.04, 198.81 1.9 M79.41 139.25 C112.26 108.65, 139.64 71.77, 198.81 1.9 M84.39 139.61 C119.39 99.1, 148.59 61.96, 203.8 2.26 M84.39 139.61 C131.33 85.83, 178.49 34.49, 203.8 2.26 M90.04 139.22 C129.23 88.74, 169.96 46.41, 209.44 1.86 M90.04 139.22 C134.56 90.74, 180.61 40.63, 209.44 1.86 M95.02 139.58 C139.32 92.41, 184.13 41.04, 214.43 2.22 M95.02 139.58 C133.61 97.77, 167.08 55.95, 214.43 2.22 M100.67 139.18 C121.36 108.56, 151.58 82.16, 219.41 2.58 M100.67 139.18 C125.29 105.03, 153.74 74.78, 219.41 2.58 M105.65 139.54 C133.63 106.57, 159.73 79.38, 225.06 2.19 M105.65 139.54 C143.76 93.5, 183.42 51.78, 225.06 2.19 M111.3 139.15 C143.13 100.05, 172.64 72.39, 230.04 2.55 M111.3 139.15 C144.1 99.31, 175.46 61.91, 230.04 2.55 M116.28 139.51 C145.71 106.39, 173.72 71.2, 235.69 2.15 M116.28 139.51 C160.57 87.21, 209.2 34.7, 235.69 2.15 M121.93 139.11 C160.66 90.23, 198.28 46.89, 240.67 2.51 M121.93 139.11 C166.95 87.51, 209.57 34.62, 240.67 2.51 M126.91 139.47 C173.66 90.2, 212.27 35.62, 246.32 2.12 M126.91 139.47 C171.65 87.84, 212.15 40.71, 246.32 2.12 M132.56 139.08 C162.04 106.45, 182.82 78.76, 251.3 2.48 M132.56 139.08 C176.76 93.22, 214.34 48.55, 251.3 2.48 M137.54 139.44 C178.91 96.52, 217.78 50.27, 256.95 2.08 M137.54 139.44 C167.5 102.93, 195.97 71.73, 256.95 2.08 M143.19 139.05 C169.43 109.56, 204.75 74.33, 261.93 2.44 M143.19 139.05 C175.51 103.94, 205.97 67.88, 261.93 2.44 M148.17 139.41 C178.65 106.7, 209.02 77.14, 267.58 2.05 M148.17 139.41 C195.23 87.86, 237.95 35.09, 267.58 2.05 M153.82 139.01 C200.06 85.05, 240.83 35.14, 272.56 2.41 M153.82 139.01 C198.58 90.58, 241.04 42.48, 272.56 2.41 M158.8 139.37 C200.65 95.23, 232.02 50.69, 278.21 2.01 M158.8 139.37 C200.88 94.08, 240.01 46.87, 278.21 2.01 M164.45 138.98 C207.74 88.5, 255.52 33.76, 283.19 2.37 M164.45 138.98 C202.49 97.96, 241.16 54.06, 283.19 2.37 M169.43 139.34 C199.03 102.45, 232.4 74.15, 288.84 1.98 M169.43 139.34 C207.41 92.27, 249.73 49, 288.84 1.98 M174.42 139.7 C207.03 102.65, 240.68 58.38, 293.82 2.34 M174.42 139.7 C220.24 89.91, 263.13 42.72, 293.82 2.34 M180.06 139.3 C201.62 110.3, 229.76 76.88, 298.81 2.7 M180.06 139.3 C207.3 107.19, 233.5 75.41, 298.81 2.7 M185.05 139.66 C224.55 90.54, 266.29 40.4, 304.45 2.3 M185.05 139.66 C229.45 84.11, 271.32 33.82, 304.45 2.3 M190.69 139.27 C216.26 109.45, 245.13 76.47, 309.44 2.66 M190.69 139.27 C235.9 89.85, 277.83 39.93, 309.44 2.66 M195.68 139.63 C222.08 110.49, 257.34 71.98, 315.08 2.27 M195.68 139.63 C220.5 114.67, 242.68 86.11, 315.08 2.27 M201.32 139.23 C226.12 107.06, 259.21 66.3, 320.07 2.63 M201.32 139.23 C232.44 102.74, 266.64 60.77, 320.07 2.63 M206.31 139.59 C236.31 107.17, 263.96 79.16, 325.71 2.24 M206.31 139.59 C243.76 93.58, 280.69 49.97, 325.71 2.24 M211.95 139.2 C230.99 112.42, 258.43 86.11, 330.7 2.6 M211.95 139.2 C241.65 103.85, 269.87 70.49, 330.7 2.6 M216.94 139.56 C248.21 112.43, 271.58 74, 336.34 2.2 M216.94 139.56 C258.7 87.84, 301.68 42.31, 336.34 2.2 M222.58 139.16 C249.14 113.95, 272.21 78.3, 341.33 2.56 M222.58 139.16 C255.67 102.19, 290.3 62.79, 341.33 2.56 M227.57 139.52 C270.96 90.35, 316.54 42.98, 346.97 2.17 M227.57 139.52 C257.04 110.56, 281.26 78.63, 346.97 2.17 M233.21 139.13 C272.41 91.37, 316.43 44.98, 351.96 2.53 M233.21 139.13 C276.89 89.54, 322.29 38.59, 351.96 2.53 M238.2 139.49 C262.15 111.64, 282.7 81.55, 357.6 2.13 M238.2 139.49 C280.84 95.27, 320.18 46.06, 357.6 2.13 M243.84 139.09 C277.29 101.27, 312.94 62.63, 362.59 2.49 M243.84 139.09 C274.04 109.46, 299.98 76.71, 362.59 2.49 M248.83 139.46 C291.11 98.16, 327.92 52.55, 368.23 2.1 M248.83 139.46 C273.57 111.96, 296.41 81.48, 368.23 2.1 M254.47 139.06 C285.09 109.58, 304.54 79.48, 373.22 2.46 M254.47 139.06 C298.18 90.96, 336.12 44.58, 373.22 2.46 M259.46 139.42 C296.83 93.31, 335.07 53.69, 378.86 2.06 M259.46 139.42 C290.28 103.32, 322.12 66.75, 378.86 2.06 M264.45 139.78 C314.35 81.14, 356.31 33.27, 383.85 2.42 M264.45 139.78 C308.52 93.33, 350.06 39.68, 383.85 2.42 M270.09 139.39 C293.24 111.01, 320.41 80.04, 388.84 2.78 M270.09 139.39 C294.72 106.01, 321.65 75.69, 388.84 2.78 M275.08 139.75 C316.15 92.49, 350.72 44.72, 394.48 2.39 M275.08 139.75 C304.28 106.56, 333.16 72.94, 394.48 2.39 M280.72 139.35 C313.05 99.14, 350.01 56.63, 399.47 2.75 M280.72 139.35 C320.3 95.84, 356.23 52.07, 399.47 2.75 M285.71 139.71 C314.79 109.24, 340.31 71.53, 405.11 2.35 M285.71 139.71 C330.76 91.62, 372.58 41.22, 405.11 2.35 M291.35 139.32 C335.76 82.97, 383.45 30.89, 410.1 2.71 M291.35 139.32 C316.99 106.46, 346.97 72.05, 410.1 2.71 M296.34 139.68 C316.59 113.26, 340.34 84.37, 415.74 2.32 M296.34 139.68 C338.37 94.94, 377.95 46.07, 415.74 2.32 M301.98 139.28 C325.33 102.35, 355.93 75.85, 420.73 2.68 M301.98 139.28 C333.28 108.08, 360.18 75.84, 420.73 2.68 M306.97 139.64 C349.06 94.4, 388.09 44.66, 426.37 2.29 M306.97 139.64 C341.28 102.99, 375.63 64.89, 426.37 2.29 M312.61 139.25 C354.48 93.84, 393.31 49.62, 431.36 2.65 M312.61 139.25 C341.11 107.25, 369.21 74.57, 431.36 2.65 M317.6 139.61 C352.47 98.28, 390.64 53.08, 437 2.25 M317.6 139.61 C356.38 99.08, 395.79 52.98, 437 2.25 M323.24 139.21 C350.3 111.82, 379.72 80.69, 441.99 2.61 M323.24 139.21 C357.78 104.2, 387.8 67.33, 441.99 2.61 M328.23 139.57 C367.9 88.13, 412.38 36.2, 447.63 2.22 M328.23 139.57 C355.29 103.68, 388.8 68.52, 447.63 2.22 M333.87 139.18 C367.19 104.15, 400.5 63.4, 452.62 2.58 M333.87 139.18 C364.18 107.4, 392.64 76.76, 452.62 2.58 M338.86 139.54 C370.7 97.38, 409.01 58.35, 458.26 2.18 M338.86 139.54 C379.11 98.24, 415.36 52.8, 458.26 2.18 M344.5 139.14 C375.24 96.13, 416.13 59.43, 463.25 2.54 M344.5 139.14 C371.65 112.78, 393.87 83.22, 463.25 2.54 M349.49 139.5 C389.14 96.51, 429.76 48.69, 468.89 2.15 M349.49 139.5 C375.29 108.97, 400.09 81.04, 468.89 2.15 M354.48 139.86 C383.74 106.81, 421.05 70.32, 473.88 2.51 M354.48 139.86 C384.91 101.47, 422.31 64.06, 473.88 2.51 M360.12 139.47 C387.61 108.73, 408.91 80.75, 478.87 2.87 M360.12 139.47 C391.46 100.58, 424.38 61.84, 478.87 2.87 M365.11 139.83 C392.91 104.28, 430.85 63.24, 484.51 2.47 M365.11 139.83 C405.5 92.01, 444.6 47.53, 484.51 2.47 M370.75 139.44 C405.73 101.61, 436.79 64.34, 489.5 2.83 M370.75 139.44 C407.63 101.02, 440.04 59.6, 489.5 2.83 M375.74 139.8 C417.9 97.81, 455.43 51.49, 495.14 2.44 M375.74 139.8 C402.8 107.71, 434.72 74.17, 495.14 2.44 M381.38 139.4 C411.2 108.74, 440.77 78.52, 500.13 2.8 M381.38 139.4 C420.87 87.49, 464.44 38.16, 500.13 2.8 M386.37 139.76 C423.51 87.16, 469.08 42.51, 505.77 2.4 M386.37 139.76 C423.11 98.55, 458.44 58.02, 505.77 2.4 M392.01 139.37 C440.86 83, 489.61 30.24, 510.76 2.76 M392.01 139.37 C429.64 92.81, 469.92 46.96, 510.76 2.76 M397 139.73 C423.36 110.02, 449.69 79.28, 516.4 2.37 M397 139.73 C425.45 111.14, 449.76 80.1, 516.4 2.37 M402.64 139.33 C446.92 90.5, 493.13 34.06, 521.39 2.73 M402.64 139.33 C449.78 87.41, 494.99 34.84, 521.39 2.73 M407.63 139.69 C446.83 91.46, 485.89 52.65, 528.34 0.83 M407.63 139.69 C433.94 105.76, 466.97 69.99, 528.34 0.83 M413.27 139.3 C437.8 107.28, 465.78 74.47, 532.67 1.94 M413.27 139.3 C447.89 97.65, 486.83 55.74, 532.67 1.94 M418.26 139.66 C457.82 93.73, 497.88 49.18, 536.35 3.81 M418.26 139.66 C452.7 101.1, 490.02 56.44, 536.35 3.81 M423.9 139.26 C470.44 87.8, 513.33 42.04, 540.02 5.68 M423.9 139.26 C466.35 90.84, 511.14 41.13, 540.02 5.68 M428.89 139.62 C460.69 97.48, 495.86 58.93, 543.7 7.55 M428.89 139.62 C462.09 104.18, 492.65 63.6, 543.7 7.55 M433.87 139.98 C471.86 98.01, 512.35 51.52, 547.37 9.42 M433.87 139.98 C465.31 104.01, 497.12 68.61, 547.37 9.42 M439.52 139.59 C459.01 110.94, 483.44 89.93, 549.08 13.55 M439.52 139.59 C468.76 106.85, 500.62 70.35, 549.08 13.55 M444.5 139.95 C479.69 98.69, 515.03 54.66, 550.79 17.69 M444.5 139.95 C481.04 94.29, 520.7 53.57, 550.79 17.69 M450.15 139.55 C478.11 108.57, 497.75 76.18, 552.49 21.82 M450.15 139.55 C487.46 98.12, 521.83 55.74, 552.49 21.82 M455.13 139.91 C478 108.11, 509.52 81.59, 554.2 25.95 M455.13 139.91 C477.34 113.23, 504.37 83.73, 554.2 25.95 M460.78 139.52 C489.79 102.03, 520.38 70.13, 553.94 32.35 M460.78 139.52 C485.2 111.27, 510.08 82.79, 553.94 32.35 M465.76 139.88 C487.57 120.35, 505.11 96.28, 554.33 37.99 M465.76 139.88 C484.38 114.85, 503.98 91.18, 554.33 37.99 M471.41 139.49 C495.39 117.37, 516.49 94.75, 554.07 44.39 M471.41 139.49 C494.61 113.5, 518.37 90.32, 554.07 44.39 M476.39 139.85 C495.68 112.81, 516.52 94.98, 554.47 50.04 M476.39 139.85 C508.3 107.01, 535.81 73.04, 554.47 50.04 M482.04 139.45 C510.79 107.58, 535.51 81.52, 554.2 56.43 M482.04 139.45 C501.88 116.21, 522.26 93.78, 554.2 56.43 M487.02 139.81 C508.48 123.4, 519.27 100.1, 553.94 62.83 M487.02 139.81 C502.7 119.06, 521.87 99.51, 553.94 62.83 M492.67 139.42 C515.2 112.96, 535.94 86.04, 554.34 68.47 M492.67 139.42 C505.61 125.74, 518.33 111.01, 554.34 68.47 M497.65 139.78 C511.4 128.7, 519 114.76, 554.08 74.87 M497.65 139.78 C519.17 118.48, 534.63 96.87, 554.08 74.87 M503.3 139.38 C513.47 129.76, 527.61 115.31, 554.47 80.51 M503.3 139.38 C520.64 118.29, 540.63 96.22, 554.47 80.51 M508.28 139.74 C525.48 122.17, 534.23 109.19, 554.21 86.91 M508.28 139.74 C521 128.84, 529.97 115.26, 554.21 86.91 M513.93 139.35 C526.71 129.49, 533.09 111.65, 553.95 93.31 M513.93 139.35 C524.23 131.38, 530.16 119.73, 553.95 93.31 M518.91 139.71 C533.84 123.48, 547.41 113.03, 554.34 98.95 M518.91 139.71 C528.44 130.9, 536.12 121.34, 554.34 98.95 M523.9 140.07 C533.81 129.09, 544.12 120.7, 554.08 105.35 M523.9 140.07 C534.75 130.61, 540.08 120.74, 554.08 105.35 M529.54 139.67 C531.8 135.56, 539.05 127.52, 554.47 110.99 M529.54 139.67 C534.42 132.9, 538.28 128.8, 554.47 110.99 M536.5 137.77 C541.7 129.42, 552.48 125.86, 555.53 115.88 M536.5 137.77 C543.97 132.18, 549.9 122.12, 555.53 115.88" stroke="#e9ecef" stroke-width="0.5" fill="none"></path><path d="M32 0 M32 0 C174.65 2.44, 317.86 4.2, 521 0 M32 0 C185.05 1.75, 338.49 1.71, 521 0 M521 0 C539.63 -3.34, 553.03 13.42, 553 32 M521 0 C540.62 -3.27, 553.66 6.07, 553 32 M553 32 C550.39 58.32, 550.68 80.21, 553 106 M553 32 C553.24 58.82, 552.83 81.24, 553 106 M553 106 C552.23 128.08, 539.32 141.81, 521 138 M553 106 C551.29 128.56, 539.08 135.65, 521 138 M521 138 C401.64 141.33, 281.67 140.17, 32 138 M521 138 C358.4 140.77, 194.89 140.64, 32 138 M32 138 C10.86 141, -2.32 123.39, 0 106 M32 138 C12.17 137.76, 3.52 124.82, 0 106 M0 106 C3.45 84.53, -2.31 57.4, 0 32 M0 106 C0.71 78.31, -1.14 47.82, 0 32 M0 32 C2.22 12.57, 14.42 -1.33, 32 0 M0 32 C-4.03 13.91, 6.32 1.17, 32 0" stroke="#2f9e44" stroke-width="1" fill="none"></path></g><g transform="translate(777.2312825750154 768.8603019432667) rotate(0 173.17793273925787 45)"><text x="173.1779327392578" y="0" font-family="Virgil, Segoe UI Emoji" font-size="36px" fill="#2f9e44" text-anchor="middle" style="white-space: pre;" direction="ltr" dominant-baseline="text-before-edge">name = 'steve jobs'</text><text x="173.1779327392578" y="45" font-family="Virgil, Segoe UI Emoji" font-size="36px" fill="#2f9e44" text-anchor="middle" style="white-space: pre;" direction="ltr" dominant-baseline="text-before-edge">population = 1</text></g><g stroke-linecap="round"><g transform="translate(397.6594774986247 480.8947918585742) rotate(0 33.68159541836934 34.763497560433755)"><path d="M1.17 -1.98 C12.7 9.74, 57.86 56.83, 69 68.91 M-1.64 3.12 C9.67 15.27, 56.23 59.78, 67.58 71.51" stroke="#2f9e44" stroke-width="1" fill="none"></path></g><g transform="translate(397.6594774986247 480.8947918585742) rotate(0 33.68159541836934 34.763497560433755)"><path d="M37.5 61.12 C45.48 63.16, 55.75 66, 64.49 72.34 M41.26 57.13 C49.26 61.78, 58.87 67.53, 69.26 71.42" stroke="#2f9e44" stroke-width="1" fill="none"></path></g><g transform="translate(397.6594774986247 480.8947918585742) rotate(0 33.68159541836934 34.763497560433755)"><path d="M51.94 46.53 C55.54 52.98, 61.58 60.09, 64.49 72.34 M55.7 42.54 C59.6 51.85, 64.85 62, 69.26 71.42" stroke="#2f9e44" stroke-width="1" fill="none"></path></g></g><mask></mask><g stroke-linecap="round"><g transform="translate(474.1829374218477 672.0885432073437) rotate(0 -27.687622786269515 31.606860422721894)"><path d="M-1.07 1.69 C-11.21 12.34, -49.58 53.05, -58.92 63.08 M3.55 0.14 C-5.95 10.02, -43.54 47.98, -54.04 58.78" stroke="#2f9e44" stroke-width="1" fill="none"></path></g><g transform="translate(474.1829374218477 672.0885432073437) rotate(0 -27.687622786269515 31.606860422721894)"><path d="M-39.21 27.48 C-44.47 40.04, -50.83 50.26, -50.8 60.87 M-42.73 30.49 C-45.39 41.29, -52.69 51.82, -54.48 58.23" stroke="#2f9e44" stroke-width="1" fill="none"></path></g><g transform="translate(474.1829374218477 672.0885432073437) rotate(0 -27.687622786269515 31.606860422721894)"><path d="M-24.56 41.85 C-35.14 49, -46.9 53.92, -50.8 60.87 M-28.08 44.86 C-36.14 50.47, -48.89 55.65, -54.48 58.23" stroke="#2f9e44" stroke-width="1" fill="none"></path></g></g><mask></mask><g stroke-linecap="round"><g transform="translate(698.6126864274461 477.5754557402276) rotate(0 -29.052329075711498 30.191288137590437)"><path d="M-1.03 -0.55 C-11.3 9.83, -52.24 49.73, -61.71 60.35 M3.61 -3.32 C-5.77 7.67, -46.01 53.34, -56.38 63.7" stroke="#2f9e44" stroke-width="1" fill="none"></path></g><g transform="translate(698.6126864274461 477.5754557402276) rotate(0 -29.052329075711498 30.191288137590437)"><path d="M-45.5 33.25 C-49.29 46.92, -48.8 55.15, -59.82 67.42 M-43.48 37.39 C-45.35 43.74, -47.87 49.24, -57.03 62.9" stroke="#2f9e44" stroke-width="1" fill="none"></path></g><g transform="translate(698.6126864274461 477.5754557402276) rotate(0 -29.052329075711498 30.191288137590437)"><path d="M-30.46 47.22 C-38.55 56.61, -42.53 60.68, -59.82 67.42 M-28.44 51.35 C-33.47 55.04, -39.06 57.69, -57.03 62.9" stroke="#2f9e44" stroke-width="1" fill="none"></path></g></g><mask></mask><g stroke-linecap="round"><g transform="translate(642.5513413557389 677.1244495124929) rotate(0 30.178164411370688 21.043400263824424)"><path d="M-2.78 -0.4 C8.05 7.32, 52.25 38.16, 63.13 45.17 M0.91 -3.09 C11.42 4.03, 49.02 33.75, 60.27 41.65" stroke="#2f9e44" stroke-width="1" fill="none"></path></g><g transform="translate(642.5513413557389 677.1244495124929) rotate(0 30.178164411370688 21.043400263824424)"><path d="M30.98 31.36 C42.16 33.13, 43.89 34.37, 60.09 38.86 M31.66 31.37 C36.84 34.68, 43.97 36.27, 61.49 40.45" stroke="#2f9e44" stroke-width="1" fill="none"></path></g><g transform="translate(642.5513413557389 677.1244495124929) rotate(0 30.178164411370688 21.043400263824424)"><path d="M43.26 14.92 C51.41 20.32, 50.25 25.44, 60.09 38.86 M43.94 14.93 C46.26 21.89, 50.68 27.11, 61.49 40.45" stroke="#2f9e44" stroke-width="1" fill="none"></path></g></g><mask></mask><g transform="translate(824.0876922002963 588.8972130316517) rotate(0 331.181884765625 22.5)"><text x="331.181884765625" y="0" font-family="Virgil, Segoe UI Emoji" font-size="36px" fill="#1971c2" text-anchor="middle" style="white-space: pre;" direction="ltr" dominant-baseline="text-before-edge">// same variable for all class object</text></g></svg>